<svg width="180" height="166" viewBox="0 0 180 166" fill="none" xmlns="http://www.w3.org/2000/svg">
<g opacity="0.15">
<path d="M95.4112 0.6129C92.0214 1.10701 79.4328 2.33521 73.7503 2.71638C70.5012 2.94226 62.948 2.9846 60.8522 2.80109C59.7832 2.70226 59.5441 2.63167 58.883 2.19403C57.8703 1.50229 57.2374 1.33289 56.0418 1.40347C54.6493 1.50229 53.6085 2.02463 52.441 3.19637C51.3017 4.35399 50.8798 5.20102 50.7813 6.47159C50.711 7.55862 50.922 10.2127 51.3158 12.8103C51.7378 15.6196 51.9065 17.836 51.8081 18.9936C51.7378 19.6854 51.4564 20.8712 51.0345 22.1983C50.6547 23.3559 50.0218 25.3888 49.6279 26.7158C48.348 30.951 47.2649 33.3227 45.7177 35.2568C44.3674 36.965 42.1873 38.5038 40.2744 39.1108C38.8959 39.5485 37.827 39.6473 33.4526 39.7743C30.5129 39.8449 28.614 39.972 27.7982 40.1132C25.9275 40.452 23.227 41.3978 21.1031 42.4566C16.8271 44.5883 14.0984 46.833 10.9759 50.8282C10.3007 51.6893 8.86607 53.4964 7.78302 54.8516C4.46356 59.0021 3.92907 59.708 3.43678 60.7385C2.56472 62.5032 2.48032 63.0114 2.43813 67.0913C2.41 70.9736 2.29747 72.0042 1.43948 76.0558C0.398627 80.9263 0.131382 82.6204 0.0329239 85.0909C-0.0374037 86.7285 -0.00927267 87.1944 0.257972 88.4085C0.412693 89.1849 0.60961 90.1167 0.665872 90.4837C0.750265 91.0202 0.933117 91.3167 1.56606 92.0084C2.78976 93.3213 4.70267 96.8506 5.11057 98.5306C5.16684 98.7424 5.46221 99.2082 5.75759 99.5471C6.54526 100.436 6.8125 101.636 7.07975 105.321C7.29073 108.328 7.48765 109.514 7.99401 110.897C8.92233 113.396 11.0181 116.29 13.0857 117.914C14.1125 118.718 15.8566 119.678 16.3067 119.678C16.4614 119.678 16.6162 119.876 16.7287 120.201C16.9537 120.892 17.3194 121.485 18.6697 123.264C20.3154 125.438 20.5545 126.229 20.7936 130.478C20.878 131.946 20.9765 133.287 21.0327 133.429C21.2015 134.007 25.0977 138.737 27.6435 141.461C29.1767 143.099 29.4298 143.24 31.2302 143.353C32.4539 143.438 32.468 143.438 33.2697 144.13C33.7198 144.511 34.7466 145.245 35.5343 145.767C41.2308 149.466 42.3139 150.313 42.3139 151.061C42.3139 151.626 42.6092 152.261 43.2562 153.08C44.0017 154.012 44.2971 154.59 44.4096 155.353L44.494 155.988L45.4786 156.299C46.4913 156.637 47.6025 157.117 51.5268 158.967C54.9025 160.548 56.6185 161.042 58.7705 161.042C60.2474 161.042 60.7537 160.901 61.8227 160.209C62.962 159.475 63.2011 159.419 63.8482 159.715L64.3967 159.955L64.7906 159.588C65.1422 159.249 65.2969 159.207 66.0986 159.207C68.0116 159.207 69.2071 159.842 70.7403 161.691C72.6954 164.049 73.2299 164.402 75.4381 164.882C77.0557 165.221 80.6283 165.348 84.7214 165.207L87.8158 165.108L89.2224 163.724C90.9383 162.044 91.5713 161.762 93.7374 161.649C96.1004 161.522 98.801 162.073 100.967 163.131C101.544 163.414 102.078 163.626 102.149 163.597C102.233 163.583 104.132 163.513 106.368 163.442C110.743 163.301 111.615 163.202 113.331 162.666C114.737 162.214 115.764 161.522 117.424 159.913C118.985 158.388 119.801 157.823 121.151 157.343C122.994 156.666 124.245 156.454 126.285 156.468C127.987 156.468 128.296 156.51 129.281 156.849L130.392 157.23L131.953 156.327C134.119 155.07 136.426 153.983 138.592 153.193C140.885 152.374 141.616 151.993 142.418 151.259C143.248 150.496 143.417 150.129 143.642 148.591C143.754 147.871 143.895 147.151 143.951 146.995C144.204 146.275 145.147 145.273 146.652 144.073C147.552 143.353 149.015 142.083 149.887 141.235C151.758 139.428 152.63 138.934 153.685 139.076C155.766 139.372 155.372 139.513 157.651 137.678C162.518 133.739 164.107 131.805 164.965 128.713C165.275 127.598 165.359 125.523 165.176 123.998C165.092 123.335 165.12 123.179 165.443 122.699C165.64 122.389 166.259 121.161 166.808 119.961C167.849 117.688 168.721 116.22 169.438 115.542C169.663 115.33 170.507 114.822 171.309 114.413C172.926 113.608 172.842 113.693 174.347 111.067C176.682 106.973 177.765 103.599 177.765 100.394C177.765 98.6859 177.568 97.8953 176.668 96.1165L175.866 94.5072V93.0813C175.88 91.2461 176.105 90.5261 177.905 86.785C179.439 83.5945 179.846 82.3804 179.973 80.5593C180.086 78.8228 179.846 77.5805 179.242 76.8323C178.426 75.8441 177.948 74.5876 177.357 71.9618C176.752 69.1807 176.611 68.7854 175.838 67.6278C175.528 67.176 174.361 64.9314 173.236 62.6444C170.479 57.068 167.891 52.7764 164.571 48.2871C163.727 47.1436 163.418 46.8189 163.08 46.7483C162.447 46.6212 161.308 45.9577 159.93 44.8989C158.382 43.7131 157.637 43.3743 155.963 43.0919C154.107 42.7813 153.516 42.5272 152.545 41.6378C152.025 41.1578 151.279 40.6637 150.562 40.3249C149.479 39.8167 148.762 39.5908 144.655 38.4332L142.854 37.925L141.982 37.0497C140.716 35.765 139.703 35.2568 135.653 33.8309C132.811 32.8427 131.967 32.4616 130.842 31.6992L129.97 31.1204L129.886 30.231C129.759 28.9887 129.225 27.224 128.296 24.9653C126.215 19.8972 125.807 18.6548 125.582 16.6502C125.427 15.3373 125.624 13.6996 126.018 12.8526C126.299 12.2738 126.426 12.1609 128.128 11.1162C128.662 10.7915 128.887 10.5233 129.253 9.76093C129.675 8.89977 129.731 8.64565 129.773 7.37509L129.829 5.93512L128.479 5.55396C127.748 5.34219 125.722 4.69279 124.006 4.114C118.014 2.0811 116.003 1.5164 113.063 1.00818C111.39 0.711716 107.929 0.655243 104.343 0.867004C102.191 0.994064 102.149 0.97995 101.08 0.6129C99.7152 0.147018 98.5197 0.147018 95.4112 0.6129ZM113.19 2.78696C115.272 3.21048 116.847 3.74695 121.151 5.46925C123.247 6.30217 125.469 7.16333 126.116 7.37509L127.284 7.75626L126.608 8.47624C124.4 10.8479 123.247 13.6855 123.359 16.4384C123.402 17.6243 123.444 17.7796 124.358 19.7701C125.427 22.1136 125.483 22.3112 126.369 26.3629C127.256 30.471 127.776 31.9675 128.789 33.3651C129.14 33.8451 129.351 33.9721 130.097 34.1839C131.475 34.5792 134.373 35.4968 135.709 35.9909C137.087 36.485 139.507 37.5156 139.507 37.6144C139.507 37.6426 139.408 37.8685 139.282 38.0944C139.169 38.3344 139.085 38.5461 139.113 38.5744C139.141 38.6026 139.76 38.772 140.519 38.9696C141.265 39.1814 142.756 39.6614 143.825 40.0708C147.088 41.2849 149.648 42.146 150.576 42.3296C151.322 42.4849 151.462 42.5554 151.462 42.7954C151.462 42.9648 151.659 43.2895 151.884 43.5437C152.194 43.8966 152.475 44.0236 153.136 44.1507C155.133 44.5178 156.821 45.3507 160.014 47.5812C161.196 48.4 162.293 49.12 162.433 49.1623C162.588 49.2047 163.024 49.8259 163.432 50.5458C163.84 51.2658 165.697 54.1316 167.567 56.941C171.379 62.6303 172.715 65.0867 173.587 68.009C174.094 69.703 174.53 71.9195 174.53 72.823V73.3453L172.954 72.6394C163.474 68.4184 156.568 63.8867 141.546 52.0423C139.071 50.0941 135.653 47.44 133.951 46.1554C130.955 43.8966 130.547 43.4872 130.913 43.1201C131.236 42.7954 131.011 42.626 129.534 42.0472C128.704 41.7225 127.734 41.2567 127.396 41.0167L126.777 40.5649L127.382 40.4237C129.661 39.9296 134.401 42.3719 141.251 47.5671C144.233 49.8259 146.652 51.5199 147.918 52.2117C148.185 52.367 148.354 52.5929 148.41 52.8893C148.466 53.1717 148.748 53.5528 149.17 53.934C149.535 54.2587 150.182 54.8799 150.618 55.3175C151.04 55.741 151.715 56.2775 152.095 56.5033C153.375 57.2374 155.147 58.4233 157.862 60.3009C161.899 63.0961 163.291 63.9714 165.542 65.1008C167.356 66.0184 170.676 67.2749 170.83 67.1055C170.859 67.0772 170.676 66.809 170.423 66.5125C169.93 65.9478 168.636 65.2561 167.778 65.1149C167.37 65.0443 167.103 64.8608 166.583 64.2538C165.739 63.2655 164.698 62.5738 163.643 62.3056C163.109 62.1644 162.56 61.882 162.096 61.515C160.647 60.3574 156.948 57.5621 154.416 55.7269C148.044 51.0682 144.289 47.9765 141.87 45.3366C141.56 44.9977 141.223 44.7154 141.124 44.7154C140.772 44.7154 138.156 43.3037 136.412 42.1743C134.077 40.6496 132.108 39.7037 130.561 39.3226C129.422 39.0402 129.253 38.9555 128.676 38.3626C127.748 37.3885 126.777 36.725 124.063 35.2003C120.743 33.3227 119.351 32.151 118.577 30.5698C118.436 30.2451 117.916 29.751 117.199 29.2146C114.217 26.9982 112.388 24.6406 107.508 16.6925C104.877 12.4009 102.556 9.4221 101.867 9.4221C101.276 9.4221 100.531 9.02682 99.7715 8.30684C98.9697 7.54449 98.3368 7.34686 97.2819 7.51627C96.1004 7.69978 95.3268 8.05272 93.7655 9.11153C91.8245 10.4103 91.079 10.7209 89.8412 10.7209C88.7019 10.7209 88.2237 10.5233 86.789 9.45033C85.4528 8.46213 84.3838 7.91154 83.3711 7.72803C82.274 7.51627 81.641 7.68567 80.4736 8.49036C79.8969 8.88565 79.1092 9.39388 78.7295 9.63387C78.1528 9.9868 77.8574 10.3397 77.0275 11.6809C76.4087 12.655 75.6351 13.6714 75.0865 14.222C74.4958 14.8008 74.0597 15.3796 73.905 15.7749C72.8782 18.4148 71.5561 19.9536 67.4208 23.2571C64.8749 25.29 63.7638 26.2923 62.948 27.2805C62.5119 27.8028 61.9071 28.3252 61.3445 28.6499C59.4738 29.7369 57.364 31.431 54.5368 34.0709C49.6983 38.6167 48.9387 39.1814 44.916 41.2567C42.131 42.6825 40.2744 43.8401 39.557 44.5883L39.1491 45.026L39.7117 44.9272C40.851 44.7295 41.9904 44.3907 43.1578 43.9107C45.5208 42.9366 47.2087 41.8637 51.8081 38.3626C53.51 37.0638 55.3807 35.6944 55.9574 35.2991C56.5341 34.9039 57.9688 33.7039 59.1222 32.6451C63.9185 28.2405 67.041 25.897 70.262 24.2594C71.1763 23.8076 71.4154 23.61 71.6967 23.1018C72.7376 21.1959 74.3692 18.8525 75.8179 17.1443C76.3243 16.5372 76.9713 15.5067 77.562 14.349C79.1796 11.1727 80.558 10.0291 83.0335 9.87386L84.201 9.80327L85.059 10.5233C86.7187 11.9209 87.9143 12.3867 89.785 12.4009C91.5291 12.415 91.9792 12.2456 94.075 10.8338C95.2565 10.0433 95.9738 9.70445 96.4942 9.70445C96.8599 9.70445 96.7333 10.0997 96.0723 11.088C95.805 11.4832 95.6222 11.8644 95.6644 11.9068C95.8472 12.0903 96.6067 11.6385 96.9725 11.1303C97.1834 10.8479 97.3803 10.5938 97.3944 10.5656C97.4788 10.4668 97.8726 10.8621 97.8726 11.0597C97.8726 11.1585 97.6054 11.5397 97.2819 11.9209L96.7052 12.5985L97.4647 12.7114C97.8867 12.7679 98.6322 12.7679 99.1245 12.7256C100.109 12.6267 100.053 12.5562 99.7574 13.5161C99.6449 13.8549 99.7293 13.8549 100.601 13.6008C101.347 13.375 101.614 13.4173 101.825 13.8267C102.022 14.1938 101.755 14.5043 101.248 14.5043C100.419 14.5043 100.686 15.3796 101.67 15.8737C102.331 16.2125 103.203 16.2972 103.654 16.0572C104.005 15.8596 104.005 16.0855 103.64 16.4102C103.33 16.6925 103.274 17.116 103.513 17.2713C103.597 17.3137 103.907 17.2431 104.202 17.116C105.271 16.636 105.482 17.2431 104.54 18.1184C104.033 18.5984 103.921 19.0784 104.287 19.2195C104.526 19.3183 105.187 19.0078 105.454 18.6831C105.679 18.4148 106.171 18.3866 106.171 18.6266C106.171 18.7254 105.932 18.9372 105.637 19.0925C105.229 19.3183 105.13 19.4595 105.159 19.7277C105.201 20.1654 105.215 20.1795 105.96 20.2501C106.678 20.3348 106.79 20.5889 106.242 20.9418C105.538 21.3936 105.96 21.8877 106.72 21.5065C107.268 21.2101 107.986 21.2101 108.098 21.5065C108.14 21.6336 108.014 21.9018 107.733 22.1842C107.015 22.9324 107.184 23.1865 108.408 23.1865C109.364 23.1865 109.603 23.4547 109.153 24.0335C108.844 24.4288 108.745 25.0076 108.956 25.1488C109.027 25.1911 109.378 25.1206 109.758 25.0076C110.546 24.7817 111.024 24.8523 110.883 25.2053C110.489 26.2358 110.827 26.7864 111.854 26.7864C112.43 26.7864 112.487 26.8146 112.571 27.224C112.627 27.464 113.176 28.4099 113.795 29.3275C114.667 30.6263 114.934 31.1345 114.99 31.6286C115.061 32.1651 115.131 32.278 115.567 32.518C115.834 32.6592 116.228 32.9416 116.453 33.1533C116.805 33.4921 116.833 33.5768 116.763 34.3533C116.636 35.7085 116.861 36.2027 118.211 37.685C119.041 38.5744 119.745 39.5485 120.42 40.692C120.954 41.6237 121.84 43.1343 122.375 44.0378C124.035 46.8895 125.385 48.4 130.505 53.1152C132.98 55.4022 135.132 57.548 136.482 59.0445C138.845 61.6985 140.111 62.842 141.419 63.5197C142.249 63.9573 142.348 64.0561 142.784 64.9314L143.234 65.8914H143.979C144.725 65.8914 144.725 65.8914 144.978 66.4984C145.119 66.8231 145.287 67.3031 145.344 67.5572C145.442 68.009 145.442 68.009 146.314 68.009C147.636 68.009 147.833 68.3478 147.032 69.1807C146.764 69.4631 146.539 69.7454 146.539 69.8301C146.539 70.056 147.003 70.1266 147.524 69.9854C148.326 69.7595 149.071 69.8019 149.071 70.0842C149.071 70.2113 149.141 70.536 149.24 70.7901C149.395 71.2277 149.451 71.256 150.112 71.256C150.759 71.256 150.843 71.2983 151.448 71.9618C151.94 72.4983 152.236 72.6959 152.63 72.7665C153.052 72.823 153.15 72.8936 153.08 73.0771C152.798 73.7547 152.7 74.1076 152.784 74.1782C152.939 74.3335 153.685 74.2347 154.149 73.9947C154.613 73.7688 154.613 73.7688 154.936 74.1641C155.372 74.7147 155.344 74.9265 154.768 75.3923C154.5 75.6041 154.275 75.8441 154.275 75.9288C154.275 76.0276 154.782 76.0558 155.682 76.0276C156.456 75.9994 157.088 75.9994 157.088 76.0276C157.088 76.0558 156.92 76.2958 156.709 76.5641C156.399 76.9876 156.371 77.0864 156.54 77.1993C156.948 77.4676 157.426 77.4958 158.157 77.2982C159.297 76.9735 159.564 77.4252 158.706 78.2299C158.439 78.4981 158.214 78.8087 158.214 78.9358C158.214 79.1334 158.312 79.1616 158.889 79.0911C159.494 79.0064 159.606 79.0487 160.253 79.5005C160.788 79.8957 161.097 80.0087 161.547 80.0087H162.124L162.068 80.531C161.969 81.3357 162.11 81.4487 162.898 81.1804C163.46 80.9969 163.657 80.9828 164.192 81.1381C164.937 81.3498 165.823 82.2392 166.076 83.0157L166.259 83.538H167.159C168.13 83.538 168.214 83.6227 167.891 84.3145C167.806 84.5121 167.778 84.7097 167.82 84.7662C167.975 84.9215 168.721 84.8368 169.143 84.625C169.354 84.5121 169.705 84.3851 169.93 84.3286C170.31 84.2439 170.31 84.2439 170.31 84.9074V85.585H171.759C173.039 85.585 173.278 85.6274 173.897 85.9521L174.6 86.3191L174.558 87.2932C174.544 87.8297 174.361 89.0438 174.178 90.0037C173.7 92.3331 173.63 93.1943 173.812 94.1825C173.897 94.6483 173.939 95.0577 173.897 95.086C173.77 95.213 172.026 94.3801 170.985 93.7025C170.423 93.3213 169.143 92.3331 168.13 91.5143C165.95 89.6932 164.965 89.0155 163.727 88.4367C163.01 88.112 162.419 87.6603 161.238 86.5168C160.394 85.6838 158.143 83.7215 156.245 82.1263C152.489 78.9781 149.577 76.1547 148.368 74.5029C147.946 73.91 146.736 72.6394 145.625 71.623C137.34 63.9573 130.884 57.3363 126.229 51.7035C121.024 45.4213 116.481 38.5038 113.246 31.9675C112.67 30.8098 112.177 29.8922 112.149 29.9204C112.051 30.0193 112.501 32.0239 112.866 33.1392C113.373 34.6497 114.428 36.8238 116.552 40.6355C120.096 47.0448 122.009 49.84 125.202 53.2846C126.004 54.1599 126.819 55.1763 127.03 55.5716C127.537 56.4751 142.052 71.1289 144.725 73.4159C145.78 74.3194 146.792 75.2935 146.975 75.59C148.494 78.117 151.054 80.6016 156.245 84.5968C158.706 86.4885 160.844 88.2955 161.927 89.4108C162.335 89.8343 162.771 90.1731 162.912 90.1731C163.038 90.1731 163.573 90.399 164.107 90.6673C164.628 90.9355 165.134 91.1614 165.232 91.1614C165.331 91.1614 165.753 91.5002 166.161 91.9237C166.569 92.3331 167.441 92.9966 168.088 93.3919C169.565 94.2813 170.521 95.1283 170.887 95.8342C171.084 96.2295 171.252 96.3848 171.492 96.3848C172.012 96.3848 173.489 97.2036 173.981 97.7683C175.852 99.9 175.669 104.262 173.517 108.399C172.757 109.881 171.703 111.208 171.309 111.208C170.957 111.208 170.634 110.799 170.521 110.22C170.451 109.824 170.254 109.599 169.565 109.09C166.54 106.874 162.251 102.766 156.034 96.1024C154.177 94.126 151.476 91.3167 150.028 89.8767C148.565 88.4367 147.383 87.1944 147.383 87.1238C147.383 86.8273 146.047 84.9497 145.006 83.8204C143.375 82.0275 142.46 80.8981 140.899 78.8087C139.521 76.9593 138.142 75.3359 135.484 72.4559C132.432 69.1242 130.884 67.0208 129.689 64.522C129.098 63.2797 128.859 62.955 128.001 62.1503C126.637 60.8797 125.427 59.3268 122.923 55.5998C121.742 53.8493 120.406 51.9435 119.941 51.3646C119.323 50.5741 118.83 49.6988 118.113 48.1035C117.578 46.9036 115.651 42.9225 113.837 39.2661C111.193 33.958 110.532 32.518 110.532 32.0663C110.532 31.431 110.25 30.951 109.828 30.8381C109.575 30.7675 109.547 30.8381 109.547 31.4592C109.547 32.1933 109.955 33.6051 110.349 34.2545C110.475 34.4521 110.771 34.8192 110.982 35.0591C111.305 35.4121 111.488 35.8921 111.868 37.3885C113.288 43.0496 114.906 46.3671 120.828 55.741C122.178 57.8727 123.669 60.3009 124.161 61.1621C125.103 62.842 125.554 63.3503 126.088 63.3503C126.383 63.3503 126.426 63.4067 126.426 63.8585C126.426 64.2538 126.524 64.4514 126.876 64.7337C128.367 66.0043 128.592 66.2725 129.281 67.6984C129.998 69.1666 130.73 70.0701 131.306 70.2113C131.56 70.2819 131.602 70.3666 131.531 70.7054C131.363 71.5665 131.813 72.103 132.685 72.103C132.994 72.103 133.036 72.1736 133.05 72.6677C133.065 72.9783 133.079 73.303 133.093 73.3877C133.093 73.4583 133.515 73.8677 134.021 74.2629C135.16 75.1947 135.892 76.1547 136.201 77.1288L136.44 77.8911H137.101H137.777L137.762 78.484C137.748 79.0628 137.777 79.0911 138.649 79.684C139.76 80.404 139.872 80.5734 139.577 81.124C139.155 81.971 139.338 82.2675 140.294 82.2675C140.744 82.2675 140.801 82.3239 141.054 82.8886C141.349 83.5804 141.757 83.8768 142.263 83.778C142.685 83.7074 142.685 83.7498 142.249 84.2721C142.052 84.498 141.926 84.738 141.968 84.8086C141.996 84.865 142.376 85.0909 142.812 85.2886C143.642 85.698 143.909 86.1638 143.6 86.6579C143.515 86.7991 143.445 86.9403 143.445 86.9544C143.445 86.9826 143.923 86.9685 144.514 86.9544C145.513 86.9121 145.583 86.9262 145.484 87.1662C145.414 87.3073 145.358 87.6744 145.358 87.985C145.344 88.5497 145.344 88.5497 146.455 89.1426C147.876 89.919 148.185 90.2014 148.298 90.9355C148.424 91.6413 148.551 91.8108 149.226 92.1496C149.577 92.3331 149.887 92.6719 150.182 93.2084C150.548 93.8578 150.745 94.0413 151.293 94.2813C152.362 94.7189 152.377 94.733 152.334 95.3824C152.292 95.9048 152.334 95.9754 152.742 96.2295C152.995 96.3848 153.389 96.5542 153.6 96.5965C154.008 96.6954 154.078 96.7942 153.867 97.0342C153.685 97.2318 153.572 97.853 153.685 98.0365C153.741 98.1353 154.191 98.22 154.697 98.2483C155.752 98.2906 155.893 98.5024 155.387 99.1941C154.88 99.8859 155.091 100.112 156.16 100.027C157.609 99.9 157.862 100.267 157.004 101.213C156.357 101.947 156.484 102.074 157.961 102.173C158.636 102.215 159.128 102.314 159.156 102.413C159.184 102.498 159.015 102.794 158.776 103.076C157.946 104.008 158.411 104.46 159.831 104.121C161.238 103.768 161.997 104.192 161.308 104.926C161.139 105.109 161.027 105.363 161.055 105.519C161.097 105.73 161.238 105.773 162.082 105.773C163.038 105.773 163.066 105.787 163.109 106.154C163.137 106.366 163.052 106.719 162.94 106.959C162.813 107.185 162.715 107.509 162.715 107.679C162.715 108.088 163.432 108.06 164.093 107.608C164.698 107.185 164.853 107.17 165.134 107.495C165.359 107.777 165.331 107.961 164.839 108.992C164.585 109.528 164.557 109.712 164.684 109.881C164.979 110.22 165.246 110.107 165.893 109.415C166.372 108.879 166.54 108.78 166.681 108.921C166.766 109.006 166.962 109.09 167.103 109.09C167.427 109.09 167.413 109.217 167.075 109.655C166.709 110.121 166.723 110.46 167.117 110.657C167.286 110.756 167.652 111.024 167.933 111.264C168.2 111.504 168.552 111.773 168.707 111.857C168.96 111.999 168.946 112.041 168.566 113.015C168.045 114.3 167.103 115.782 165.95 117.123C165.12 118.097 165.021 118.281 164.726 119.424C164.557 120.116 164.248 120.935 164.023 121.259C163.657 121.81 162.841 122.502 162.56 122.502C162.49 122.502 161.533 121.274 160.422 119.777C158.143 116.714 157.44 115.881 156.118 114.681C155.344 113.989 155.021 113.537 154.233 112.069C152.883 109.584 151.856 108.074 150.618 106.761C149.901 106.013 149.254 105.109 148.663 104.079C147.468 102.003 145.864 99.66 142.924 95.7354L140.491 92.4743V91.7119C140.477 90.9637 140.463 90.9214 139.071 89.1849C137.411 87.0956 136.553 85.825 133.951 81.5616C131.728 77.9334 129.056 73.8394 127.495 71.6795C126.608 70.4513 126.426 70.0983 126.426 69.6607C126.426 68.9548 126.383 68.8842 122.262 61.995C116.341 52.0846 113.528 46.96 113.682 46.3671C113.823 45.7883 113.485 44.2495 112.993 43.2331C112.74 42.6825 112.093 41.6378 111.572 40.9037C111.038 40.1696 110.349 39.0402 110.011 38.3908C109.491 37.4026 109.406 37.092 109.406 36.3862C109.406 35.638 109.308 35.3556 108.562 33.8874C107.817 32.4051 105.834 29.4687 105.581 29.4687C105.426 29.4687 105.299 30.3016 105.398 30.7675C105.454 31.0075 105.693 31.6286 105.918 32.1369C106.143 32.6451 106.875 34.438 107.536 36.1038C108.956 39.7179 109.378 40.5649 110.686 42.5554C111.952 44.4754 112.219 45.0966 112.219 46.0848C112.219 47.7506 114.259 51.8164 119.534 60.5974C122.923 66.2725 124.442 68.9689 124.864 70.1407C125.174 70.9595 125.399 71.3548 127.199 74.2206C127.804 75.1947 128.592 76.5217 128.929 77.1852C129.59 78.4417 138.044 91.5002 143.009 98.9259C150.098 109.542 155.668 117.067 161.097 123.391L162.883 125.481L162.799 126.215C162.419 129.095 161.083 131.48 158.622 133.654C156.779 135.306 155.429 136.337 155.161 136.337C154.782 136.337 154.346 135.814 154.036 134.996C153.882 134.6 153.052 133.344 152.18 132.186C149.381 128.445 147.06 124.845 142.953 117.914C137.523 108.723 136.454 106.959 134.921 104.53C133.529 102.356 133.318 101.947 133.318 101.425C133.318 100.366 132.924 99.0529 132.418 98.4459C130.744 96.3707 129.337 93.886 125.666 86.4321C124.091 83.2415 122.347 79.8957 121.798 78.9922C121.123 77.8629 120.659 76.8888 120.377 75.9853C119.801 74.2206 119.21 72.7947 117.072 68.1501C114.653 62.8985 113.893 61.0915 112.248 56.6304C111.474 54.541 110.208 51.2376 109.434 49.3035C106.382 41.6237 106.171 41.0025 105.679 37.8685C105.426 36.2309 104.835 34.8615 104.188 34.3956L103.766 34.0992L103.836 34.565C103.893 34.8333 104.047 35.8638 104.216 36.8803C104.694 39.972 105.538 43.6566 106.439 46.5506C107.184 48.9506 110.588 58.4092 111.966 61.8679C113.049 64.6208 114.793 68.1643 115.862 69.8019L116.706 71.1148L116.467 71.7501C116.2 72.4842 116.298 72.7524 116.945 73.0912C117.171 73.2041 117.382 73.3171 117.41 73.3312C117.424 73.3453 117.283 73.5853 117.072 73.8535L116.692 74.3618L117.058 74.5029C117.48 74.6582 117.705 75.1382 117.705 75.8582C117.705 76.3947 118.113 76.9029 118.549 76.9029C118.704 76.9029 118.83 76.9876 118.83 77.0864C118.83 77.1993 118.704 77.397 118.549 77.5382C118.394 77.6793 118.268 77.9476 118.268 78.1452C118.268 78.484 118.296 78.484 118.901 78.4134C119.505 78.3287 119.534 78.3287 119.759 78.8369L120.012 79.3452L119.477 79.7687C118.985 80.164 118.971 80.1922 119.196 80.4463C119.365 80.644 119.632 80.7146 120.096 80.7146C120.56 80.7146 120.87 80.7993 121.137 81.011C121.657 81.4204 121.573 81.8439 120.884 82.1969C120.195 82.5639 119.97 82.8886 120.181 83.2133C120.349 83.4674 120.659 83.4957 121.657 83.3121C122.108 83.2415 122.178 83.2698 122.248 83.5521C122.375 84.018 122.178 84.258 121.503 84.5121C120.785 84.7803 120.701 84.9356 121.039 85.345C121.292 85.6415 121.306 85.6415 122.037 85.4297C122.445 85.3027 122.825 85.2462 122.867 85.2886C122.909 85.3309 122.839 85.5286 122.712 85.7121C122.431 86.1497 122.417 86.7003 122.698 86.9262C122.811 87.025 123.162 87.0956 123.472 87.0956C123.978 87.0815 124.035 87.1238 124.035 87.4344C124.035 87.7591 123.598 88.3379 123.359 88.3379C123.148 88.3379 122.614 88.9167 122.698 89.0438C122.74 89.1144 123.317 89.3402 123.964 89.5379C125.005 89.8626 125.174 89.9614 125.258 90.272C125.329 90.5826 125.258 90.7237 124.907 91.0202C124.386 91.4437 124.358 91.599 124.71 91.8955C125.103 92.2484 125.525 92.319 125.779 92.079C126.004 91.839 126.285 91.8955 126.285 92.1919C126.285 92.2766 126.116 92.5166 125.919 92.7284C125.441 93.2366 125.554 93.5613 126.215 93.5754C127.424 93.6178 127.579 93.9566 126.763 94.8601C126.369 95.3119 126.299 95.453 126.44 95.6224C126.651 95.8765 127.087 95.8765 127.832 95.6083C128.156 95.4954 128.451 95.3966 128.465 95.3966C128.493 95.3966 128.535 95.5377 128.578 95.693C128.634 95.9189 128.55 96.1165 128.24 96.3989C127.832 96.7801 127.692 97.4153 127.973 97.5847C128.043 97.6271 128.296 97.5706 128.521 97.4436C129.14 97.133 129.422 97.1753 129.703 97.6694L129.956 98.1212L129.379 98.6435C128.986 99.0106 128.845 99.2365 128.901 99.4059C129.014 99.7023 129.52 99.9141 130.069 99.9141C130.533 99.9141 130.856 100.239 130.73 100.549C130.687 100.676 130.42 100.874 130.139 100.987C129.267 101.354 129.801 102.032 130.983 102.032H131.517L131.419 102.963C131.306 104.05 131.377 104.149 132.291 104.149C132.882 104.149 132.882 104.163 132.811 104.573C132.685 105.208 132.84 105.603 133.529 106.422C133.88 106.832 134.162 107.283 134.162 107.439C134.162 107.58 133.965 107.905 133.726 108.144C133.332 108.54 133.304 108.596 133.529 108.752C133.712 108.893 133.88 108.893 134.345 108.723C135.006 108.497 135.371 108.568 135.498 108.949C135.61 109.316 135.498 109.486 134.921 109.726C134.612 109.853 134.443 110.022 134.443 110.192C134.443 110.516 134.64 110.615 135.695 110.841C136.117 110.926 136.482 111.067 136.511 111.151C136.539 111.222 136.342 111.406 136.061 111.533C135.695 111.716 135.568 111.857 135.568 112.126C135.568 112.521 135.639 112.535 136.848 112.493C137.481 112.464 137.65 112.493 137.734 112.704C137.875 113.071 137.72 113.41 137.312 113.594C137.017 113.721 136.961 113.834 137.003 114.215L137.045 114.667L137.931 114.638C138.761 114.596 138.803 114.61 138.803 114.921C138.803 115.104 138.649 115.401 138.452 115.584C138.255 115.768 138.1 115.994 138.1 116.093C138.1 116.304 138.944 116.573 139.633 116.573C140.238 116.573 140.632 116.911 140.632 117.434C140.632 117.758 140.533 117.885 140.154 118.041C139.9 118.154 139.633 118.309 139.577 118.408C139.408 118.69 139.872 119.001 140.66 119.128C141.954 119.34 142.137 120.102 141.026 120.624C140.308 120.963 140.154 121.316 140.576 121.669C140.758 121.824 140.955 121.796 141.771 121.514C142.671 121.203 142.756 121.189 142.967 121.401C143.276 121.711 143.135 122.022 142.573 122.262C141.996 122.502 141.729 122.827 141.841 123.123C141.94 123.377 142.123 123.405 143.628 123.363L144.711 123.321V123.758C144.711 124.111 144.542 124.379 144.008 124.958C143.22 125.791 143.009 126.412 143.375 126.779C143.642 127.048 143.909 126.963 144.626 126.356C145.077 125.975 145.513 125.975 145.752 126.342C145.963 126.681 145.738 127.019 145.133 127.316C144.556 127.598 144.303 127.937 144.387 128.304C144.5 128.713 144.992 128.77 145.695 128.445C146.455 128.092 146.863 128.078 147.102 128.36C147.369 128.685 147.158 129.222 146.61 129.56C146.061 129.899 145.78 130.323 145.892 130.633C145.991 130.887 146.919 130.887 147.383 130.619C147.777 130.393 148.621 130.351 148.916 130.535C149.254 130.746 148.973 131.099 148.171 131.452C147.369 131.805 147.088 132.229 147.383 132.596C147.608 132.864 148.03 132.864 148.79 132.596C149.113 132.483 149.479 132.384 149.577 132.384C149.929 132.384 149.774 132.793 149.282 133.174C148.888 133.471 148.79 133.64 148.79 134.036C148.79 134.614 149.043 134.742 149.62 134.445C149.845 134.318 150.239 134.219 150.478 134.219C151.082 134.219 151.054 134.727 150.407 135.349C149.915 135.829 149.76 136.323 150.098 136.351C150.323 136.379 150.309 136.379 151.012 136.125C152.25 135.687 152.053 136.054 150.14 137.819C149.141 138.751 147.102 140.699 145.625 142.167C142.657 145.104 142.854 145.005 141.898 144.059C141.265 143.438 140.899 142.718 140.125 140.643C139.76 139.626 138.522 136.958 137.383 134.713C134.879 129.758 134.302 128.403 133.247 125.114C132.347 122.248 131.869 121.019 129.07 114.314C126.594 108.356 125.047 104.799 123.767 102.116C123.219 100.959 122.572 99.3776 122.333 98.5871C121.348 95.3542 120.462 92.9401 118.127 87.0673C117.185 84.6956 115.919 81.4204 115.3 79.7828C114.695 78.1452 113.935 76.1405 113.612 75.3359C112.641 72.8936 112.093 71.1571 111.572 68.7854C110.883 65.609 110.7 64.9879 108.97 59.8209C108.126 57.2939 107.156 54.1316 106.818 52.7905C106.34 50.9411 105.96 49.8541 105.243 48.273C104.399 46.4095 104.202 45.7742 103.274 42.0613C102.134 37.4732 101.516 35.4544 100.7 33.7886C100.123 32.5886 100.095 32.5886 99.9121 33.8592C99.7434 35.1721 100.193 36.9509 101.389 39.7179C102.5 42.259 102.796 43.219 102.95 44.8566C103.232 47.9341 103.358 48.6541 104.047 50.8564C104.427 52.0987 105.257 54.8657 105.89 56.9975C106.523 59.1292 107.395 61.8962 107.817 63.1385C110.968 72.343 112.135 76.0558 113.26 80.404C113.767 82.3804 114.076 83.2133 115.131 85.5144C120.265 96.6248 122.262 101.552 125.722 111.561C127.734 117.377 129.829 122.234 130.73 123.123C131.18 123.589 131.349 123.914 131.545 124.69C132.333 127.669 133.838 131.269 136.862 137.466C138.93 141.687 140.772 145.824 141.265 147.334C141.56 148.252 141.476 148.478 140.393 149.466C139.492 150.285 137.861 151.146 135.02 152.275C132.755 153.193 131.672 153.701 131.039 154.153C130.645 154.421 130.645 154.421 130.223 154.125C129.703 153.758 129.408 153.193 128.775 151.372C128.507 150.595 127.635 148.28 126.848 146.219C122.951 136.069 121.32 130.958 120.223 125.396C119.913 123.758 119.393 122.502 119.041 122.502C118.929 122.502 118.83 122.459 118.83 122.417C118.83 122.163 116.664 112.591 116.313 111.279C116.087 110.417 115.609 108.639 115.258 107.326C114.47 104.432 114.484 104.46 112.824 100.422C111.207 96.4977 110.714 95.0295 109.955 91.7825C109.631 90.3849 109.027 87.8156 108.619 86.0509C108.197 84.2862 107.479 80.884 107.001 78.4981C106.537 76.1123 105.974 73.19 105.735 72.0324C105.51 70.8607 104.723 67.4725 103.991 64.4796C102.12 56.828 100.742 50.2776 99.2651 42.2166C98.9979 40.7908 98.7447 39.6332 98.6884 39.6332C98.4915 39.6332 98.5759 44.8142 98.7869 46.9459C99.3073 51.9011 100.672 59.5103 101.867 63.9996C103.049 68.4325 103.203 69.1948 103.429 71.9618C103.654 74.6159 103.752 75.0676 104.329 75.7735C104.694 76.2394 104.723 76.3099 104.54 76.6346C104.301 77.0723 104.287 77.9193 104.54 78.4981C104.638 78.7522 104.976 79.2746 105.285 79.6699C105.792 80.3051 105.834 80.404 105.665 80.644C105.271 81.1804 105.426 81.9851 106.228 83.538L106.987 85.0062L106.65 85.2744C106.199 85.6133 106.228 85.7262 106.804 86.3756C107.339 86.9685 107.437 87.505 107.086 87.9708C106.776 88.3944 106.832 88.7049 107.297 89.0861C107.817 89.5238 107.831 89.792 107.367 90.0884C106.692 90.5261 106.959 90.992 108.014 91.2178C108.745 91.3731 108.576 92.3472 107.817 92.4602C107.648 92.4884 107.493 92.6154 107.465 92.7566C107.423 92.9401 107.62 93.0954 108.197 93.3637C109.406 93.9142 109.519 94.493 108.478 94.8319C108.197 94.9307 107.929 95.1283 107.873 95.3119C107.676 95.8342 107.831 95.9895 108.619 95.9471C109.027 95.933 109.434 95.9613 109.519 96.0177C109.842 96.2154 109.688 96.7095 109.111 97.2177C108.464 97.8247 108.52 97.9518 109.547 98.22C110.785 98.5306 110.982 99.0106 110.11 99.5894C109.35 100.084 109.266 100.182 109.266 100.535C109.266 100.945 109.491 101.043 110.391 101.043C111.629 101.043 111.952 101.891 110.954 102.526C110.644 102.723 110.391 102.978 110.391 103.09C110.391 103.203 110.757 103.486 111.221 103.712C111.671 103.952 112.079 104.234 112.135 104.361C112.29 104.799 112.219 104.996 111.91 104.996C110.996 105.01 110.503 105.547 110.897 106.112C111.08 106.366 111.249 106.408 112.023 106.408C112.895 106.408 112.923 106.422 112.923 106.761C112.923 107.015 112.768 107.213 112.36 107.467C111.868 107.777 111.812 107.862 111.938 108.102C112.135 108.469 112.627 108.78 113.176 108.893C113.795 109.02 113.809 109.542 113.204 109.796C112.684 110.022 112.501 110.319 112.599 110.827C112.67 111.194 112.712 111.208 113.485 111.208C114.273 111.208 114.315 111.236 114.526 111.646C114.793 112.182 114.751 112.267 114.006 112.634C112.698 113.297 112.684 113.749 113.964 113.749C114.751 113.749 115.131 113.947 115.201 114.37C115.229 114.596 115.131 114.681 114.653 114.78C114.118 114.878 114.048 114.935 114.048 115.288C114.048 115.754 114.203 115.909 114.92 116.135C115.384 116.29 115.595 116.516 115.595 116.869C115.595 116.94 115.342 116.996 115.019 116.996C114.484 116.996 114.456 117.01 114.498 117.391C114.526 117.702 114.695 117.857 115.384 118.196C115.862 118.436 116.242 118.732 116.27 118.874C116.341 119.241 116.045 119.537 115.581 119.537C115.272 119.537 115.173 119.608 115.173 119.805C115.173 120.158 115.469 120.384 116.073 120.483C116.355 120.525 116.58 120.582 116.58 120.61C116.58 120.638 116.481 120.878 116.355 121.147C116.017 121.838 116.172 122.29 116.861 122.587C117.607 122.925 117.635 123.391 116.931 123.73C116.439 123.97 116.172 124.45 116.369 124.746C116.411 124.831 116.749 124.902 117.114 124.902C118.029 124.902 118.38 125.029 118.493 125.368C118.563 125.593 118.479 125.763 118.141 126.059C117.789 126.384 117.564 126.455 117.002 126.455C116.341 126.455 116.298 126.483 116.298 126.822C116.298 127.273 116.974 127.584 118.029 127.584C118.465 127.584 118.887 127.669 119.055 127.782C119.294 127.979 119.308 128.008 119.098 128.219C118.985 128.346 118.661 128.558 118.394 128.685C117.86 128.953 117.705 129.405 118.057 129.702C118.183 129.8 118.605 129.956 118.999 130.04C119.674 130.196 119.702 130.224 119.477 130.45C119.337 130.577 119.069 130.732 118.858 130.775C118.141 130.93 117.846 131.099 117.846 131.396C117.846 131.692 118.366 132.003 119.126 132.158C119.477 132.229 119.505 132.285 119.477 132.977C119.463 133.697 119.463 133.697 120.096 134.078C120.94 134.572 120.926 134.897 120.04 135.349C119.224 135.758 119.126 135.927 119.519 136.323C119.759 136.563 119.998 136.619 120.659 136.619C121.461 136.619 121.503 136.633 121.503 136.972C121.503 137.24 121.376 137.381 120.982 137.565C120.42 137.833 120.237 138.313 120.504 138.737C120.631 138.92 120.715 138.92 121.109 138.751C121.967 138.398 122.136 138.454 122.178 139.118C122.22 139.598 122.164 139.739 121.925 139.866C121.77 139.951 121.503 139.979 121.362 139.937C121.165 139.866 121.081 139.908 121.081 140.078C121.081 140.431 121.7 140.967 122.304 141.123C122.6 141.207 122.966 141.363 123.12 141.475C123.373 141.659 123.373 141.687 123.148 142.026C123.022 142.224 122.614 142.563 122.248 142.774C121.868 142.986 121.559 143.184 121.531 143.198C121.503 143.212 121.559 143.367 121.643 143.537C121.798 143.819 121.897 143.833 122.881 143.791L123.964 143.748V144.313C123.964 144.85 123.95 144.878 123.303 145.061C122.431 145.301 122.389 145.668 123.191 146.078C123.795 146.388 124.245 146.445 124.386 146.219C124.527 145.993 124.878 146.332 124.78 146.586C124.738 146.685 124.499 146.911 124.231 147.08C123.289 147.659 123.753 148.619 124.977 148.619C125.765 148.619 125.779 148.901 124.991 149.706C124.245 150.468 124.386 150.68 125.694 150.807C127.016 150.934 127.227 150.991 127.326 151.245C127.565 151.88 126.932 152.289 125.75 152.289C125.132 152.289 125.132 152.289 125.329 152.614C125.455 152.783 125.891 153.052 126.355 153.207C126.805 153.362 127.199 153.56 127.227 153.645C127.298 153.842 125.75 154.266 123.162 154.76C120.293 155.296 118.127 156.059 117.578 156.722C117.466 156.849 117.339 156.948 117.283 156.948C117.114 156.948 116.355 155.282 115.961 154.054C115.426 152.445 114.962 150.016 114.47 146.289C113.739 140.784 113.246 138.186 112.641 136.393C112.304 135.419 112.29 134.742 112.585 134.502C113.092 134.064 113.092 133.838 112.585 132.553C111.376 129.518 110.743 126.384 109.758 118.761C108.802 111.363 108.436 109.302 107.156 104.502C105.806 99.3918 105.384 97.2883 105.243 94.8319L105.145 93.3072L105.524 92.9401L105.918 92.5872L105.37 92.3049C105.06 92.1496 104.737 91.9378 104.638 91.8249C104.357 91.4719 101.797 76.437 100.545 67.7266C99.8559 62.9267 99.3917 60.0609 97.6617 50.0094C96.1566 41.2425 95.7628 38.0238 95.805 35.0874L95.8331 33.0263L95.4112 32.4192C94.7501 31.4875 94.6376 31.5439 94.6376 32.758C94.6376 40.7625 97.0568 59.5103 100.7 79.5852C102.725 90.7943 102.725 90.7661 103.625 93.6037C104.483 96.2718 104.596 96.8648 104.694 99.4623C104.807 102.201 105.13 104.036 106.298 108.921C107.508 113.918 107.634 114.624 108.759 122.078C110.391 132.765 112.402 144.722 114.329 154.972C114.709 157.033 115.033 158.755 115.033 158.812C115.033 158.967 113.626 159.729 112.445 160.195C109.111 161.536 105.257 161.833 102.289 160.957L101.572 160.76L101.487 157.259C101.192 146.205 100.165 135.264 96.9443 109.09C96.2692 103.556 95.4252 96.2295 94.8345 90.6673C94.3985 86.6579 94.3141 85.3027 94.2156 80.8557C94.1593 77.9758 93.9765 74.0794 93.8077 72.0324C92.7528 58.8751 92.6403 57.0257 92.5981 52.7623C92.5559 48.3718 92.5137 47.44 92.1761 44.5742C91.9229 42.4849 91.6276 40.9884 91.1493 39.5061C90.6992 38.0661 90.6711 38.1367 90.4179 41.3414C90.1507 44.8425 90.2913 48.8518 90.7555 50.8564C91.2056 52.7623 91.2056 52.9176 90.7696 53.327C90.3617 53.7081 90.3335 53.9764 90.6289 54.9504C90.7836 55.4446 90.8399 56.2351 90.8258 57.6751C90.8258 59.5527 90.8399 59.7645 91.1634 60.3997L91.501 61.0915H91.1212C90.2632 61.0915 90.1929 61.8679 91.0227 62.2632C91.4025 62.4609 91.5432 62.6161 91.5432 62.8561C91.5432 63.2655 91.2056 63.6326 90.8258 63.6326C90.4742 63.6326 90.4883 63.6891 90.9805 64.409C91.5713 65.2702 91.5713 65.5808 91.0087 65.9761L90.5445 66.3008L91.2478 66.809C91.6416 67.0913 91.9651 67.3596 91.9651 67.4019C91.9651 67.4302 91.7119 67.7266 91.3884 68.0372L90.8118 68.6019L91.2618 68.9831L91.6979 69.3501L91.4728 70.0842C91.2618 70.776 91.2759 70.8324 91.5432 71.2842C91.6979 71.5383 91.8948 72.0748 91.9792 72.4842C92.1339 73.1477 92.1199 73.2606 91.8948 73.5147C91.7541 73.67 91.5572 73.7971 91.4447 73.7971C91.304 73.7971 91.3322 73.9524 91.5713 74.39C91.8526 74.9265 91.8948 75.2794 91.9651 77.4676C92.0355 79.7122 92.0636 79.9946 92.359 80.4887C92.7528 81.1522 92.6825 81.4204 92.1058 81.4204C91.4728 81.4204 91.5291 81.9428 92.2464 82.5922C92.9778 83.2415 93.006 83.6792 92.3308 83.6792C92.0636 83.6792 91.7963 83.7498 91.7541 83.8345C91.6979 83.9051 91.9229 84.3709 92.2324 84.8368C93.006 85.9944 92.9778 86.4038 92.1058 86.5309C91.8385 86.5591 91.7541 86.6579 91.7541 86.9121C91.7541 87.1803 91.9089 87.3497 92.3871 87.632C93.3717 88.2108 93.5545 89.1849 92.6684 89.1849C92.1058 89.1849 92.0073 89.4814 92.373 90.0743C92.7809 90.7378 92.7528 91.0061 92.2464 91.1755C92.0214 91.2602 91.8245 91.3872 91.8245 91.4578C91.8245 91.6696 92.3449 92.1213 92.9638 92.4319L93.5405 92.7425L93.1888 93.1096C92.4152 93.9284 92.4434 94.5213 93.2732 94.8319C93.8218 95.0295 93.7233 95.3966 93.0482 95.7354C92.359 96.0742 92.3871 96.4836 93.1185 96.8789C93.8358 97.26 93.8218 97.613 93.0904 97.9094C92.2886 98.22 92.359 98.6435 93.231 98.8553C93.7233 98.9824 93.8921 99.0953 94.0046 99.4059C94.1593 99.8576 93.9624 100.055 93.3435 100.055C92.7809 100.055 92.8231 100.563 93.4561 101.312L93.9765 101.905L93.5827 102.314L93.2029 102.709L93.4983 103.006C93.6811 103.189 93.9765 103.302 94.2859 103.302C94.6798 103.302 94.7782 103.359 94.7782 103.57C94.7782 103.923 94.4125 104.29 94.075 104.29C93.9343 104.29 93.6952 104.403 93.5264 104.53C93.2732 104.756 93.2592 104.827 93.4139 105.123C93.4983 105.321 93.864 105.674 94.2156 105.914C94.9048 106.394 95.2283 107.001 94.947 107.283C94.8626 107.368 94.4407 107.439 93.9906 107.425C93.3295 107.41 93.217 107.439 93.2873 107.622C93.3295 107.749 93.3717 107.905 93.3717 107.975C93.3717 108.046 93.7233 108.328 94.1453 108.596C94.5672 108.864 94.9892 109.232 95.0736 109.387C95.3268 109.867 95.0314 110.319 94.3281 110.516C93.5827 110.728 93.3717 110.883 93.3717 111.222C93.3717 111.575 93.5686 111.66 94.5532 111.759C95.2705 111.829 95.4112 111.886 95.4534 112.126C95.5237 112.606 95.158 112.93 94.4547 113.001C93.3717 113.128 93.4139 113.58 94.5391 114.003C95.7628 114.469 95.7628 115.02 94.5391 115.316C93.7655 115.514 93.5264 115.881 93.9343 116.29C94.1312 116.488 94.3985 116.573 94.8908 116.573C95.9738 116.573 96.5364 117.194 95.9457 117.744C95.805 117.857 95.3268 118.097 94.8767 118.267L94.0609 118.577L94.3985 119.015C94.933 119.721 95.4252 120.017 96.0441 120.031C96.5505 120.031 96.6067 120.06 96.6067 120.398C96.6067 120.681 96.5083 120.808 96.1848 120.935C95.9597 121.019 95.58 121.161 95.3549 121.245C94.4547 121.584 94.7079 122.248 95.8753 122.587C96.3114 122.714 96.7755 122.897 96.8881 123.01C97.1975 123.306 96.9021 123.659 96.1848 123.871C95.4112 124.097 95.2002 124.281 95.2002 124.775C95.2002 125.269 95.3127 125.339 96.3395 125.424C97.296 125.523 97.5351 125.763 97.3803 126.469C97.2678 126.949 97.1834 126.963 96.3114 126.652C95.383 126.313 95.2002 126.426 95.2002 127.358C95.2002 128.389 95.4815 128.713 96.3958 128.812C97.6476 128.925 97.732 128.968 97.732 129.405C97.732 129.984 97.4225 130.153 96.2551 130.238C95.2846 130.295 95.2002 130.323 95.2002 130.605C95.2002 131.071 95.5659 131.48 96.3254 131.904C97.1834 132.37 97.2397 132.709 96.5364 133.005C95.9457 133.259 95.8472 133.471 96.0441 134.007C96.1848 134.389 96.227 134.389 96.9162 134.318C97.7461 134.219 98.154 134.389 98.154 134.84C98.154 135.264 97.7601 135.603 97.1553 135.716C96.5083 135.843 96.0441 136.153 96.0441 136.464C96.0441 136.859 96.3395 137.029 97.2538 137.127C98.3509 137.254 98.5759 137.381 98.5759 137.89C98.5759 138.384 98.2665 138.511 97.3803 138.37C96.9584 138.313 96.6771 138.341 96.5364 138.454C96.2551 138.694 96.2551 139.852 96.5505 140.276C96.7474 140.544 96.874 140.586 97.3663 140.544C99.0119 140.36 98.9697 141.25 97.31 141.8C96.663 142.012 96.5224 142.111 96.4942 142.421C96.438 142.93 96.8318 143.212 97.8304 143.381C98.8854 143.551 99.2792 143.748 99.2792 144.087C99.2792 144.511 98.9416 144.68 97.8867 144.793C96.8037 144.906 96.3817 145.16 96.5224 145.612C96.663 146.035 97.4085 146.388 98.379 146.473C99.2511 146.544 99.2792 146.544 99.2792 146.939C99.2792 147.461 98.9416 147.631 97.957 147.631C97.3382 147.631 97.1694 147.673 97.1694 147.857C97.1694 148.28 97.4647 148.619 98.154 148.972C98.5337 149.155 98.8854 149.381 98.9276 149.466C99.0963 149.748 98.5759 150.129 97.9008 150.228C96.8881 150.369 96.8318 150.44 97.1834 151.231C97.4647 151.852 97.4788 152.063 97.3944 153.758C97.2819 155.861 97.4085 156.327 98.2524 156.892C98.7025 157.202 98.7166 157.202 98.4634 157.513C98.2946 157.71 98.0414 157.837 97.7601 157.852C97.5069 157.852 97.31 157.936 97.31 158.021C97.31 158.289 97.957 158.783 98.6181 159.009C98.9838 159.136 99.2792 159.277 99.2792 159.348C99.2792 159.404 99.0119 159.574 98.6884 159.715C98.168 159.927 97.4929 159.983 94.2156 160.054C91.9511 160.11 90.1929 160.209 89.9819 160.308L89.6021 160.463L89.4896 156.694C89.4193 154.619 89.3911 144.948 89.4333 135.207C89.5459 106.422 89.5037 87.9991 89.3208 78.597C89.2224 73.7406 89.0817 66.4984 89.0114 62.5032C88.8988 55.6845 88.8707 54.9222 88.3925 50.2776C87.9002 45.2942 87.7595 42.3719 87.9565 40.2684C88.069 38.9696 87.9002 38.1367 87.4079 37.5579L87.0844 37.1909L86.9859 41.7649C86.8593 47.6518 87.1125 62.6726 87.4642 71.1007C87.858 80.3051 87.9424 87.9144 87.7455 97.5142C87.5064 108.653 87.5064 109.133 87.7173 112.69C87.9846 117.194 88.0268 151.894 87.7736 154.972C87.5626 157.555 87.0985 161.339 86.8593 162.524L86.6765 163.371L86.0576 163.484C84.8339 163.71 83.1601 163.498 81.2191 162.877C79.4187 162.313 79.3906 162.299 77.4917 162.341C75.7476 162.369 75.5225 162.341 74.9881 162.059C74.6505 161.889 74.3832 161.663 74.3832 161.564C74.3832 161.466 74.5942 160.336 74.8615 159.066C76.7181 150.172 77.5339 141.941 78.5326 122.361C79.2218 108.695 79.475 105.123 81.205 84.1027C83.0335 61.9385 83.5399 53.7646 83.7509 42.1319L83.8493 37.0779L83.4836 37.2473C82.696 37.6144 82.6116 37.9109 82.5975 40.692C82.5975 42.8801 82.5412 43.5295 82.1896 45.4213C81.8098 47.4259 81.7817 47.8777 81.7676 50.8564C81.7676 54.1034 81.7676 54.1034 81.3879 54.7669L81.0222 55.4304L81.2894 55.9528C81.5285 56.4328 81.5285 56.4892 81.3175 56.6445C81.1347 56.7857 81.1206 56.941 81.2191 57.6469C81.3738 58.748 81.3316 58.9739 80.9096 59.4115L80.558 59.7786L80.994 60.1315L81.4301 60.4703L81.0644 61.4162C80.6705 62.4609 80.6283 63.0256 80.8815 63.7173C81.0081 64.0985 80.98 64.3949 80.6424 65.6655C80.2345 67.1902 80.2345 67.4019 80.6565 68.5031C80.6986 68.6019 80.5439 68.9125 80.3048 69.1807C80.0657 69.4489 79.8688 69.7172 79.8688 69.7595C79.8688 69.816 80.0235 70.0701 80.2064 70.3101C80.7971 71.1007 80.7971 71.3407 80.1923 71.6371C79.5312 71.9477 79.4328 72.3853 79.911 72.8653C80.2204 73.1759 80.2345 73.2324 80.0235 73.43C79.8688 73.5853 79.7703 74.0088 79.7281 74.6865L79.6578 75.7029L79.1655 75.8582C78.4622 76.0841 78.4763 76.3947 79.2218 76.8323C79.5593 77.0299 79.8829 77.2982 79.925 77.4111C79.9672 77.524 79.8266 77.9899 79.6015 78.4275C78.9264 79.7828 78.8279 80.2063 79.0811 80.7004C79.3906 81.2934 79.3624 81.5475 78.9545 81.731C78.7576 81.8157 78.6029 81.9992 78.6029 82.1404C78.6029 82.2816 78.7576 82.5074 78.9545 82.6345C79.4046 82.931 79.3906 83.1286 78.9405 83.6651C78.5748 84.1027 78.5748 84.1168 78.7998 84.6815C79.0108 85.2039 79.0108 85.3168 78.7998 86.1215C78.6591 86.6579 78.6029 87.2367 78.6591 87.632C78.842 89.0155 78.842 88.9591 78.3778 89.1144L77.9277 89.2555L78.2653 89.8908C78.617 90.5826 78.7154 91.4155 78.4341 91.4014C77.4636 91.3731 77.4073 91.5708 78.1106 92.6013C78.7013 93.4484 78.7013 93.8154 78.1106 94.126C77.8855 94.2389 77.6605 94.3519 77.6324 94.366C77.5058 94.4366 78.0543 95.1001 78.3216 95.1848C78.7576 95.326 78.5888 95.5942 78.0262 95.6789C77.3511 95.7777 77.2948 96.3142 77.8855 96.9918C78.1247 97.26 78.3216 97.5847 78.3216 97.6977C78.3216 98.0083 77.8715 98.2341 77.6042 98.0647C77.2807 97.853 77.1963 97.9094 77.1963 98.3894C77.1963 98.7282 77.337 98.9541 77.7871 99.3635C78.3497 99.9 78.3638 99.9141 78.1106 100.196C77.9559 100.366 77.6746 100.479 77.3792 100.479C76.9854 100.479 76.915 100.521 76.915 100.818C76.915 101.029 77.0979 101.298 77.4073 101.566C78.0403 102.074 78.1247 102.611 77.5902 102.667C77.3933 102.695 77.0557 102.808 76.8447 102.921L76.4509 103.119L77.0979 103.655C77.773 104.22 78.1387 104.855 77.9699 105.152C77.8996 105.25 77.6464 105.279 77.2526 105.222C76.4087 105.109 76.2118 105.222 76.2118 105.773C76.2118 106.225 76.2539 106.253 76.7884 106.366C77.5761 106.521 77.7871 106.846 77.3792 107.283C76.8025 107.905 76.7462 108.314 77.1119 109.203C77.7308 110.714 77.759 110.629 76.7462 110.671C75.9445 110.714 75.8601 110.742 75.9023 110.996C75.9304 111.151 76.1274 111.547 76.3665 111.871C76.8869 112.606 76.8869 112.817 76.3524 113.043C76.1274 113.142 75.9304 113.269 75.9304 113.326C75.9304 113.396 76.2539 113.721 76.6478 114.06C77.1823 114.526 77.3229 114.737 77.2526 114.921C77.1401 115.217 76.6478 115.443 76.1274 115.443C75.5788 115.443 75.6913 115.951 76.3524 116.361C76.6618 116.558 76.915 116.784 76.915 116.855C76.915 116.925 76.7181 117.307 76.4931 117.674C75.9304 118.605 75.9445 118.987 76.5775 119.509C77.2948 120.102 77.1963 120.441 76.3102 120.497L75.621 120.54L75.8742 120.921C76.0711 121.217 76.1414 121.584 76.1414 122.587C76.1414 123.617 76.1977 123.942 76.3946 124.154C76.5212 124.309 76.6337 124.563 76.6337 124.732C76.6337 125.17 75.9726 125.89 75.5647 125.89C75.0021 125.89 75.2272 126.723 75.9867 127.429C76.4368 127.852 76.2961 128.163 75.5085 128.572C75.199 128.728 74.9459 128.925 74.9459 129.01C74.9459 129.208 75.9304 130.196 76.1977 130.28C76.4931 130.379 76.1414 130.859 75.4803 131.269C74.8193 131.692 74.8052 131.975 75.4522 132.285C75.9023 132.511 75.9445 132.567 75.9023 133.062C75.8601 133.556 75.8179 133.598 75.185 133.796C74.5942 133.979 74.5239 134.05 74.552 134.36C74.5802 134.6 74.7771 134.812 75.199 135.038C75.8038 135.377 76.1555 135.814 76.0008 136.054C75.9586 136.139 75.6632 136.196 75.3538 136.196C74.7067 136.196 74.2426 136.393 74.2426 136.676C74.2426 136.93 74.9177 137.509 75.4944 137.734C75.7335 137.847 75.9304 138.017 75.9304 138.116C75.9304 138.356 75.4241 138.68 74.8474 138.807C73.8628 139.005 73.905 139.64 74.9177 140.163C75.9726 140.699 75.8601 141.56 74.7208 141.56C74.0879 141.56 74.0175 141.885 74.5239 142.464C75.185 143.212 75.1006 143.466 74.0316 143.819C73.5252 143.988 73.1173 144.158 73.1173 144.186C73.1173 144.468 73.483 144.807 73.9191 144.948C74.6083 145.174 74.9459 145.485 74.9459 145.866C74.9459 146.275 74.6786 146.501 74.0457 146.6C73.6237 146.671 73.5393 146.741 73.5393 147.009C73.5393 147.264 73.68 147.405 74.0738 147.588C74.3973 147.744 74.6083 147.955 74.6364 148.139C74.6786 148.393 74.5802 148.449 74.116 148.534C73.5393 148.619 73.1173 149.028 73.1173 149.494C73.1173 149.635 73.3705 149.904 73.68 150.101C74.4817 150.609 74.4395 150.962 73.5674 151.075C73.1877 151.118 72.7657 151.245 72.625 151.358C72.3859 151.527 72.3719 151.583 72.5547 151.795C72.6672 151.936 73.0048 152.191 73.2861 152.374C73.8769 152.755 74.0175 153.278 73.5393 153.278C73.3705 153.278 73.047 153.376 72.822 153.503C72.4 153.715 72.4 153.729 72.6391 154.012C72.7798 154.167 73.1033 154.379 73.3565 154.478C74.1863 154.83 73.8909 155.339 72.7798 155.48C72.2734 155.55 72.1328 155.621 72.2031 155.79C72.4985 156.553 72.836 158.261 72.836 158.953C72.836 159.404 72.822 159.772 72.7938 159.772C72.7657 159.772 72.3156 159.546 71.767 159.277C69.4322 158.092 66.9566 157.527 63.595 157.414L61.1617 157.329V156.863C61.1617 156.609 61.0913 156.383 61.0069 156.355C60.8944 156.313 61.1054 154.972 61.6961 152.007C62.1603 149.635 62.9339 145.386 63.3981 142.548C63.8622 139.711 64.7202 134.487 65.311 130.93C66.9707 120.779 67.7302 117.18 68.9821 113.283C69.9245 110.389 70.0511 109.824 70.1636 108.455C70.262 107.156 70.3605 106.747 70.7403 105.928L71.1904 104.954L71.3029 101.481C71.4154 97.5847 71.4295 97.4859 72.822 90.8084C74.7208 81.7028 77.5058 65.962 78.4622 58.9033C79.475 51.4352 80.136 42.9931 80.1501 37.6144V36.3721L79.7422 36.5838C79.0249 36.965 78.8561 37.572 78.9545 39.5343C79.053 41.4402 79.0389 41.5955 76.8588 57.9151C76.2821 62.2632 75.6773 67.0208 75.5085 68.5031C75.3397 69.9854 75.0303 71.9053 74.8052 72.8089C73.7644 76.9593 72.7938 82.338 71.2185 92.7143C69.2493 105.575 68.6164 108.78 66.5628 116.22C65.0859 121.556 65.0015 121.852 64.6921 123.278C64.2983 125.057 63.5387 129.645 62.7089 135.278C61.3023 144.892 60.6694 148.421 59.6004 152.783C58.5877 156.934 58.3345 157.71 57.9547 157.767C57.7859 157.795 57.6453 157.866 57.6453 157.936C57.6453 158.148 56.7029 158.374 56.295 158.275C56.0699 158.219 55.5495 157.922 55.1275 157.626C54.1711 156.906 53.4256 156.652 50.7813 156.101C48.1511 155.565 47.2368 155.24 46.5195 154.562C45.8584 153.913 45.8443 153.687 46.3225 151.936C46.5195 151.231 46.8008 149.918 46.9555 149.014C47.3071 146.953 47.6869 145.654 48.9106 142.224C50.5563 137.636 50.6406 137.311 50.8938 134.713C51.1189 132.497 51.2314 132.045 52.3988 129.024C53.2287 126.822 53.5522 125.777 54.0023 123.659C55.2541 117.702 57.0123 111.053 59.741 101.961C60.2052 100.408 60.81 98.3188 61.0773 97.3165C61.4289 96.0036 61.668 95.3966 61.9212 95.1283C62.2728 94.7613 62.2869 94.6766 62.2588 93.406C62.2306 92.0931 62.2306 92.0508 63.0183 90.032C66.1127 81.9851 66.394 81.0534 67.6177 74.5735C68.6867 68.9689 69.0946 67.3878 70.1073 64.9737C70.7825 63.3503 71.0919 62.362 71.4295 60.7385C71.6686 59.5668 72.3719 56.5739 72.9907 54.0611C73.5956 51.5482 74.327 48.4 74.6083 47.073C75.6773 41.906 76.479 38.772 77.1541 37.0073C77.2807 36.6685 76.69 36.7815 76.2118 37.1767C75.5647 37.7273 75.1287 38.6732 73.4549 43.1201C73.0611 44.1648 72.8923 45.1671 72.6954 47.5389C72.4703 50.2776 72.2734 51.6893 72.0624 51.9152C71.964 52.0282 71.8233 52.3105 71.7811 52.5505C71.6405 53.1575 71.3169 53.6093 71.0356 53.6093C70.8387 53.6093 70.7965 53.7646 70.7825 54.6399C70.7825 55.9387 70.248 57.4916 69.4462 58.5645C68.8414 59.3833 68.7992 59.595 69.1087 60.6115C69.2212 60.9927 69.3196 61.5432 69.3196 61.8256V62.362H68.6164C68.1522 62.362 67.9131 62.4185 67.899 62.5314C67.8568 62.9408 67.9694 63.1526 68.3632 63.4914C68.6445 63.7314 68.7711 63.9573 68.743 64.1267C68.6867 64.3667 68.546 64.409 67.8287 64.4514L66.9848 64.4938L67.041 65.8631C67.0692 66.6396 67.1817 67.416 67.2942 67.6419C67.5474 68.1643 67.5474 68.1501 67.2098 68.1501C66.8301 68.1501 66.2252 68.4466 66.2252 68.6442C66.2252 68.729 66.4503 69.0113 66.7175 69.2795C67.0973 69.6466 67.2098 69.8725 67.2098 70.2395C67.2098 70.7054 67.1958 70.7195 66.7597 70.663C66.5065 70.6207 66.183 70.5501 66.0564 70.4795C65.8314 70.3948 65.8033 70.4654 65.8033 70.9736C65.8033 71.6512 66.0002 72.103 66.2956 72.103C66.5487 72.103 66.5628 72.2583 66.3378 72.5689C66.183 72.7665 66.0705 72.7806 65.6767 72.6677C65.4094 72.5971 65.1422 72.5689 65.0859 72.6112C64.8327 72.7665 64.9734 73.4724 65.3813 74.0794C65.8033 74.7147 65.9158 75.0676 65.6767 75.0676C65.6064 75.0676 65.2969 74.9829 64.9875 74.87C64.1295 74.5594 63.9607 74.9406 64.678 75.59C65.3391 76.1829 65.2406 76.4511 64.3686 76.5076L63.6231 76.5499L63.5809 77.2276C63.5528 77.7217 63.6653 78.2864 63.9748 79.1758C64.2139 79.8675 64.3686 80.5028 64.3264 80.5734C64.2139 80.7569 63.1449 81.0251 62.8354 80.9545C62.3291 80.8134 62.5401 81.3922 63.1308 81.7875C63.595 82.098 63.6934 82.2392 63.6934 82.6345C63.6934 83.1851 63.4543 83.3545 62.4979 83.4957C61.7524 83.5945 61.7524 83.7498 62.4416 84.2015C63.1308 84.6674 63.2715 84.7945 63.2715 85.0203C63.2715 85.1756 63.0886 85.2321 62.5682 85.2321C61.9775 85.2321 61.8649 85.2744 61.8649 85.5003C61.8649 85.6415 62.0618 85.9944 62.2869 86.2909C62.7229 86.8415 62.7792 87.025 62.5963 87.3073C62.526 87.4344 62.3432 87.4344 61.8931 87.3073C61.246 87.1379 60.8522 87.265 60.7678 87.6744C60.7397 87.8014 60.9788 88.1826 61.2882 88.5214C61.6117 88.8602 61.8649 89.2696 61.8649 89.4249C61.8649 89.7779 61.3304 90.032 60.599 90.032C60.2896 90.032 60.0364 90.0884 60.0364 90.1731C60.0364 90.4978 60.374 90.992 60.7397 91.2178L61.1476 91.4578L60.6272 91.9378C60.1067 92.4037 60.1067 92.4178 60.1067 93.5895V94.7613L59.3753 94.8036C58.4892 94.8601 58.4189 95.0577 59.0518 95.7636C59.6144 96.413 59.5019 96.6106 58.6299 96.5542C57.9969 96.4977 57.9266 96.5259 57.9266 96.7942C57.9266 96.9636 58.0813 97.3447 58.2782 97.6553C58.4751 97.9659 58.6299 98.3471 58.6299 98.5024C58.6299 98.7424 58.5314 98.7847 58.0672 98.7847C57.5749 98.7847 57.5046 98.8271 57.5046 99.1235C57.5046 99.3071 57.7015 99.6882 57.9266 99.9847C58.4611 100.662 58.4892 101.269 57.9828 101.495C57.7156 101.622 57.5187 101.622 57.2233 101.509C56.4778 101.227 56.4356 101.834 57.153 102.512C57.4202 102.78 57.6453 103.105 57.6453 103.26C57.6453 103.57 57.1248 103.867 56.5763 103.867C56.2387 103.867 56.2247 103.909 56.309 104.333C56.3653 104.573 56.4216 104.883 56.4638 105.01C56.5763 105.406 56.1684 105.759 55.6198 105.745C55.1838 105.73 55.1135 105.773 55.1135 106.055C55.1135 106.267 55.2823 106.521 55.5917 106.761C56.1121 107.156 56.309 107.721 56.0137 107.975C55.859 108.102 55.648 108.088 55.1697 107.961C54.6212 107.806 54.5087 107.806 54.3117 108.003C54.1008 108.215 54.143 108.286 54.8181 108.921C55.4229 109.5 55.5495 109.697 55.5073 110.022C55.4651 110.431 55.4651 110.431 54.368 110.474L53.2568 110.516L53.8335 110.926C54.2977 111.264 54.4102 111.434 54.4102 111.787C54.4102 112.154 54.368 112.21 54.1711 112.126C53.5522 111.857 53.285 111.871 53.285 112.168C53.285 112.507 53.4819 112.676 54.1711 112.888C54.6071 113.043 54.6915 113.128 54.6915 113.453C54.6915 114.144 54.2836 114.356 53.2146 114.243C52.5395 114.173 52.3004 114.201 52.3004 114.314C52.3004 114.511 53.1865 115.415 53.6929 115.74C54.2414 116.093 53.946 116.29 52.8489 116.29C52.1597 116.29 51.8784 116.347 51.8784 116.46C51.8784 116.756 52.0472 116.925 52.6801 117.335C53.1302 117.603 53.285 117.801 53.285 118.055C53.285 118.38 53.2428 118.408 52.5817 118.408C51.9628 118.408 51.8784 118.436 51.8784 118.704C51.8784 118.874 52.0613 119.227 52.3004 119.495C52.7364 119.989 52.7927 120.187 52.5958 120.511C52.5114 120.638 52.3426 120.681 52.0753 120.61C51.2455 120.398 50.9642 120.441 50.922 120.751C50.8938 120.977 51.0204 121.147 51.3721 121.372C51.8503 121.669 52.3004 122.163 52.3004 122.389C52.3004 122.459 51.8925 122.502 51.3861 122.502C50.6828 122.502 50.4719 122.544 50.4719 122.699C50.4719 122.968 50.8094 123.292 51.3439 123.575C51.7096 123.758 51.7518 123.843 51.6674 124.238C51.5127 124.944 51.3299 125.085 50.6828 125.001C50.3734 124.958 50.0077 124.888 49.8811 124.831C49.6701 124.746 49.6279 124.803 49.6279 125.099C49.6279 125.495 49.8248 125.721 50.6125 126.229C50.9923 126.469 51.1048 126.624 51.1048 126.949C51.1048 127.415 50.9642 127.443 49.867 127.231L49.3326 127.118L49.3747 127.598C49.4029 127.979 49.5295 128.149 49.9374 128.417C50.5984 128.84 50.6828 129.335 50.0921 129.179C49.4029 128.996 48.8684 129.052 48.8121 129.292C48.7981 129.419 48.995 129.786 49.2763 130.111C49.5435 130.45 49.7686 130.831 49.7686 130.986C49.7686 131.226 49.6561 131.255 48.8543 131.255C48.0385 131.255 47.9401 131.283 47.9401 131.537C47.9401 131.72 48.1229 131.904 48.4746 132.059C48.8684 132.257 49.009 132.412 49.0372 132.709C49.0794 133.09 49.0653 133.09 48.3058 133.09C47.8697 133.09 47.5181 133.146 47.5181 133.217C47.5181 133.57 47.7431 133.838 48.2776 134.106C48.9106 134.431 49.0653 134.586 49.0653 134.953C49.0653 135.179 48.9247 135.207 47.9401 135.207C46.9273 135.207 46.8148 135.236 46.8148 135.476C46.8148 135.631 47.068 136.054 47.3774 136.407C47.9541 137.071 48.362 137.749 48.362 138.031C48.362 138.116 47.926 138.172 47.2368 138.172C46.2241 138.172 46.1115 138.2 46.1115 138.44C46.1115 138.708 46.7164 139.301 46.9977 139.301C47.2509 139.301 47.6588 139.753 47.6588 140.021C47.6588 140.163 47.504 140.388 47.3212 140.501C47.0399 140.685 46.8711 140.699 46.4351 140.586C45.6052 140.346 45.4083 140.388 45.4083 140.784C45.4083 140.995 45.5489 141.221 45.774 141.377C46.421 141.814 46.9555 142.379 46.9555 142.605C46.9555 142.788 46.7867 142.831 46.0694 142.831C44.8035 142.831 44.6909 143.014 45.4927 143.833C45.9287 144.285 46.1256 144.581 46.0694 144.722C45.9287 145.09 45.5349 145.16 45.0988 144.906C44.8597 144.779 44.5221 144.666 44.3252 144.666C43.7767 144.666 43.9455 145.231 44.5925 145.584C44.9722 145.781 45.127 145.965 45.127 146.177C45.127 146.473 45.0566 146.501 44.4237 146.501C44.0439 146.501 43.7204 146.529 43.7204 146.572C43.7204 146.614 43.9455 146.967 44.2127 147.362C44.4799 147.758 44.705 148.153 44.705 148.252C44.705 148.336 44.7472 148.548 44.7894 148.718C44.8738 149.014 44.8316 149.042 44.3956 149.042C44.1283 149.042 43.5094 148.845 43.0171 148.605C42.1029 148.139 40.3728 146.628 39.9649 145.922C39.7821 145.626 39.5148 145.457 38.9522 145.287C38.1083 145.047 37.4331 144.61 35.9141 143.381C34.9154 142.577 33.9167 141.984 33.537 141.984C33.1009 141.984 33.1713 141.631 34.0011 139.965C35.0139 137.904 35.9844 136.294 37.194 134.685C37.8832 133.767 38.0942 133.386 38.0942 133.019C38.0942 132.017 38.6287 130.309 39.2476 129.25C42.7921 123.377 45.4927 117.151 51.0345 102.102C51.6674 100.394 52.9333 97.1471 53.8476 94.9025C55.437 90.9637 56.4638 88.3097 58.2079 83.4674C60.0223 78.484 63.8622 68.376 66.9707 60.4562C67.885 58.0986 68.4054 56.5457 68.6726 55.3598C69.0805 53.4822 70.2902 49.2329 71.8374 44.2354C72.7376 41.3272 72.836 40.8755 72.836 39.859L72.822 38.7155L72.4141 39.1673C71.9921 39.6332 71.767 40.2826 71.3591 42.2449C71.1763 43.0637 70.8387 43.9107 70.0933 45.3507C68.8696 47.7224 68.8133 47.8777 68.546 49.9247C68.3351 51.5764 68.1522 52.0282 67.5615 52.4234C67.041 52.7623 66.4643 54.4563 65.1703 59.468C64.889 60.555 64.467 62.0797 64.2279 62.8561C63.4121 65.5243 60.3318 73.5006 59.2487 75.7311C57.8141 78.6958 57.7437 78.8652 57.2233 80.7287C56.3934 83.6651 55.7464 85.5286 53.8054 90.5967C53.2287 92.1072 52.427 94.2954 52.0191 95.4671C49.9655 101.467 49.4029 102.935 47.3493 107.89C40.9636 123.278 36.547 132.511 32.6649 138.624C31.9054 139.81 31.9054 139.81 31.0614 139.993C29.894 140.233 29.7815 140.163 27.095 137.438C24.9429 135.264 24.521 134.77 24.085 133.852C23.6067 132.892 23.5645 132.695 23.5505 131.579C23.5364 130.365 23.5505 130.337 23.9162 130.153C24.1271 130.055 24.5772 129.645 24.9008 129.236C25.2383 128.84 25.8009 128.219 26.1526 127.866C26.6027 127.415 26.8418 127.033 26.9824 126.525C27.1372 125.989 27.3903 125.608 28.0655 124.902C28.7547 124.182 29.1485 123.575 29.9081 122.078C30.4285 121.034 31.7647 118.732 32.8618 116.968C34.9998 113.551 36.125 111.49 36.8283 109.81C37.0674 109.232 37.4894 108.497 37.7988 108.159C38.5584 107.34 39.0929 106.225 39.6414 104.29C40.1759 102.413 40.5979 101.509 41.3293 100.62C42.2154 99.5329 42.3279 99.2929 42.4545 98.0083C42.5952 96.6106 42.8905 95.9048 44.4237 93.2084C44.9582 92.2766 45.999 90.2155 46.7445 88.6202C50.7813 80.051 54.143 72.6536 57.2374 65.5384C58.1094 63.5197 59.3894 60.7527 60.0786 59.3974C62.4275 54.781 63.6231 51.9999 66.8301 43.7131C67.7162 41.4261 68.7711 38.8991 69.1649 38.0944C69.9104 36.5697 70.0511 35.8215 69.6994 35.3415C69.5166 35.1015 69.4744 35.1297 69.0524 35.6944C68.4195 36.5838 67.3645 38.6732 66.3659 41.1155C65.4376 43.346 64.5374 45.2377 64.1013 45.8589C63.9607 46.0565 63.806 46.5083 63.7497 46.8471C63.4262 49.12 62.8073 50.7294 60.6412 55.021C59.7973 56.6869 58.9534 58.5504 58.7705 59.1433C58.5736 59.7503 58.3485 60.2444 58.2642 60.2444C58.1798 60.2444 57.9969 60.3997 57.8703 60.5974C57.7437 60.795 57.5046 60.9503 57.3499 60.9503C57.1248 60.9503 57.0826 61.0068 57.153 61.1903C57.2092 61.3315 57.2796 61.6421 57.3218 61.882C57.3921 62.2915 57.3499 62.362 56.8857 62.5738C56.2247 62.8985 55.9011 63.4491 55.4792 65.0302C55.0432 66.6537 54.7196 67.289 54.157 67.656C53.7351 67.9243 53.721 67.9807 53.7069 68.8984V69.8725L53.1865 69.816C52.7364 69.7736 52.652 69.816 52.6098 70.0701C52.5817 70.2395 52.6661 70.6207 52.7786 70.903C52.9052 71.1995 53.0037 71.5524 53.0037 71.6936C53.0037 72.0324 52.4973 72.2442 51.7237 72.2442C51.0345 72.2442 50.9782 72.5689 51.5971 73.1618C51.8221 73.3877 52.0191 73.67 52.0191 73.783C52.0191 73.91 51.6956 74.1924 51.3017 74.4323C50.0499 75.1806 49.4732 76.2676 49.4591 77.9193C49.4591 78.8087 49.4451 78.8652 49.0653 79.0205C48.7559 79.1475 48.6011 79.1475 48.362 79.0205C48.1089 78.8793 48.0245 78.8934 47.926 79.0346C47.8557 79.1475 47.8275 79.2887 47.8557 79.3734C47.8838 79.444 47.9823 79.7546 48.0948 80.0369C48.2214 80.4181 48.2354 80.6863 48.137 80.9545C48.0245 81.3075 47.926 81.3498 47.2649 81.3922C46.3929 81.4487 46.2944 81.7028 46.9555 82.338C47.4618 82.818 47.49 83.1145 47.0539 83.1145C46.5054 83.1145 46.1537 83.6651 45.7177 85.2321C45.127 87.4062 44.7894 87.9144 44.0158 87.9144C43.636 87.9144 43.5094 88.4085 43.7767 88.832C43.9033 89.0155 44.0017 89.3261 44.0017 89.5238C44.0017 89.8061 43.9033 89.9049 43.4672 90.0179C43.1859 90.1026 42.8624 90.1731 42.7499 90.1731C42.5952 90.1731 42.5811 90.3143 42.6655 90.8367C42.8484 92.079 42.8202 92.4602 42.553 92.6296C42.342 92.7566 42.2435 92.7143 41.9763 92.3896C41.6246 91.9519 41.3152 91.9096 41.0339 92.2343C40.8792 92.4178 40.8932 92.5449 41.1605 93.039C41.695 94.0413 41.5825 94.2672 40.7385 93.9142C40.5275 93.8295 40.4853 93.886 40.4853 94.3095C40.4853 94.7189 40.5838 94.8883 40.9917 95.2271C41.8356 95.933 41.484 96.0883 39.7961 95.7354C39.3601 95.6507 39.332 95.6648 39.4304 95.9754C39.6695 96.7377 39.7821 96.9212 40.1337 97.2036C40.3447 97.373 40.4713 97.5706 40.415 97.6553C40.3728 97.7259 39.8524 97.7965 39.2757 97.7965C38.263 97.7965 38.2208 97.8106 38.263 98.1071C38.2911 98.333 38.474 98.4883 38.8678 98.6435C39.6977 98.9541 39.7821 99.0388 39.7821 99.5329C39.7821 100.324 39.6133 100.436 38.8397 100.211C37.8832 99.9423 37.616 99.9423 37.5597 100.239C37.5316 100.394 37.7707 100.747 38.2208 101.185C38.9803 101.919 39.0788 102.173 38.7131 102.469C38.5443 102.611 38.3615 102.611 37.7707 102.469C36.5048 102.173 36.4767 102.187 36.5048 102.738C36.5189 103.062 36.6314 103.302 36.8564 103.472C37.7707 104.149 37.9536 104.333 37.9536 104.516C37.9536 104.785 37.2503 104.77 36.3501 104.502C35.9141 104.361 35.6046 104.333 35.5202 104.418C35.253 104.686 35.5624 105.208 36.1954 105.589C36.6173 105.843 36.8283 106.069 36.8283 106.267C36.8283 106.662 36.3923 106.634 35.9844 106.196C35.5905 105.773 34.9998 105.716 34.9998 106.112C34.9998 106.253 35.0983 106.606 35.2108 106.874C35.4921 107.552 35.4921 108.441 35.2248 108.342C34.7747 108.159 34.0011 108.074 33.6636 108.159C33.1291 108.3 33.1994 108.766 33.8042 109.006C34.2121 109.189 34.2965 109.288 34.2965 109.641C34.2965 110.149 34.1137 110.192 33.5229 109.796C32.9462 109.415 32.89 109.429 32.89 110.008C32.89 110.671 33.1994 111.25 33.6636 111.462C33.973 111.603 34.0152 111.674 33.8746 111.843C33.6214 112.14 33.3401 112.111 32.8056 111.702C32.5524 111.504 32.2148 111.349 32.0601 111.349C31.821 111.349 31.7647 111.434 31.7647 111.815C31.7647 112.069 31.8632 112.62 31.9898 113.029C32.1023 113.438 32.1726 113.82 32.1304 113.862C32.0882 113.904 31.8913 113.862 31.6944 113.777C31.2724 113.58 31.188 113.58 30.9489 113.721C30.7239 113.876 31.0896 114.85 31.5115 115.175C31.821 115.415 31.7507 115.725 31.399 115.725C31.2865 115.725 31.0052 115.627 30.7801 115.514C30.4004 115.316 30.3582 115.316 30.2316 115.556C30.1331 115.74 30.1753 115.98 30.4004 116.417C30.9208 117.434 30.2597 117.942 29.4439 117.137C29.1907 116.883 28.8954 116.714 28.7969 116.742C28.6984 116.77 28.614 117.194 28.5719 117.857C28.5156 118.732 28.5578 118.972 28.7547 119.17C28.9376 119.354 28.9516 119.452 28.825 119.58C28.6984 119.707 28.5437 119.678 28.178 119.481C27.9108 119.325 27.6435 119.241 27.6013 119.283C27.5591 119.34 27.5873 119.608 27.6717 119.89C27.8404 120.54 27.7561 120.765 27.2497 121.034C26.7855 121.274 26.7855 121.259 27.0106 121.895C27.2356 122.53 27.0106 122.784 26.5042 122.445C26.3073 122.318 26.0541 122.219 25.9275 122.219C25.59 122.219 25.6603 123.095 26.0541 123.674C26.2932 124.026 26.3495 124.21 26.237 124.323C25.9557 124.605 25.6322 124.492 24.957 123.899C24.1131 123.151 23.9724 123.419 24.5772 124.676C25.3649 126.313 24.9851 126.808 23.9302 125.523C23.663 125.184 23.3817 124.902 23.3113 124.902C23.1144 124.902 23.1707 125.636 23.3957 126.031C23.5786 126.37 23.6771 127.019 23.5364 127.019C23.5083 127.019 23.3254 126.949 23.1285 126.864C22.7487 126.681 22.594 126.384 22.2846 125.071C22.1017 124.365 21.9048 123.998 21.3422 123.335C20.9483 122.883 19.8794 121.471 18.9651 120.215L17.3194 117.914L17.6429 116.954C18.1774 115.373 18.7541 114.511 19.8653 113.622C21.2859 112.493 21.8626 111.871 22.0595 111.25C22.3549 110.29 22.8191 109.726 23.4379 109.542C24.1412 109.33 24.9148 108.469 25.9838 106.733C27.742 103.867 28.9235 102.229 31.1458 99.5612C34.1137 96.0036 34.7325 95.1566 36.6877 92.0508C39.0788 88.2532 39.8946 87.0532 40.5557 86.3615C40.8932 86.0085 41.6809 84.8368 42.3279 83.7498C43.5094 81.731 44.9863 79.444 46.0553 77.9899C46.3788 77.5523 47.0539 76.4088 47.5322 75.4488C48.5308 73.4724 50.9079 69.1666 53.7069 64.2679C57.2233 58.0986 59.2487 54.301 60.9085 50.7153C61.9775 48.4424 63.6934 44.2495 63.6934 43.9672C63.6794 43.8684 63.3559 44.1648 62.948 44.6025C62.2025 45.4213 62.104 45.5907 60.585 48.7247C59.8817 50.207 59.5441 50.7294 58.8268 51.4635C58.0954 52.2258 57.8844 52.5646 57.5749 53.454C57.0264 55.021 54.7478 59.6092 53.4678 61.7268C52.8489 62.7291 51.3721 65.1432 50.1905 67.0913C48.995 69.0254 47.7291 71.3124 47.3634 72.1453C46.646 73.783 46.1397 74.5735 45.7037 74.7147C45.5489 74.757 45.4083 74.9829 45.352 75.2229C45.2395 75.8441 44.6347 76.9876 43.9877 77.8629C43.3125 78.7522 42.764 79.811 42.6374 80.4604C42.5811 80.7428 42.2576 81.251 41.7794 81.7733C41.3433 82.2392 40.5275 83.3545 39.9509 84.2439C37.7988 87.5756 37.3347 88.225 36.5048 89.0579C35.8297 89.7496 35.5202 90.2155 34.9998 91.3449C33.6214 94.3942 31.8491 96.9636 29.3595 99.5471C27.9811 101.001 27.1512 102.032 25.59 104.29C22.8613 108.257 21.2859 110.276 19.5277 112.041C17.3898 114.201 15.8285 115.147 14.0562 115.387L13.2967 115.486L13.367 114.85C13.4374 114.243 13.4233 114.201 12.7903 113.678C12.4246 113.368 11.8902 112.831 11.5948 112.479C10.99 111.759 9.99131 109.754 9.54121 108.356L9.23177 107.425L9.89285 106.38C11.2431 104.305 13.7187 101.665 17.2772 98.573C19.6684 96.4836 22.2002 93.9848 22.2002 93.7025C22.2002 93.5754 22.2986 93.3495 22.4112 93.1943C22.5237 93.0531 22.6221 92.7284 22.6221 92.5025C22.6221 92.1637 22.7909 91.8955 23.3395 91.3731C24.5491 90.1873 27.3622 86.9685 29.6408 84.1592C33.537 79.3734 35.7734 76.7194 37.3628 75.0253C38.3896 73.91 39.2898 72.7665 40.0071 71.6371C41.8778 68.7007 44.6206 64.6067 48.1511 59.468C54.1711 50.7153 57.0686 46.2401 59.6426 41.7366C61.3304 38.8002 63.7497 34.1415 63.6512 34.0286C63.4965 33.8733 62.8495 34.1415 62.3853 34.5509C61.8649 35.0027 61.6117 35.5109 61.1476 37.0497C60.7397 38.4332 60.5006 38.772 59.2347 39.8026C57.378 41.3131 57.2092 41.5108 57.2374 42.3719C57.2655 43.0496 57.1952 43.2048 56.5622 44.1648C56.1684 44.7436 55.5214 45.8589 55.1135 46.6495C54.2555 48.3718 53.3975 49.3882 52.5114 49.7553L51.8784 50.0094V50.9552V51.9011L51.2736 52.2682C50.922 52.4658 50.4437 52.6211 50.1484 52.6211C49.5717 52.6211 49.5154 52.7623 49.8389 53.327C49.9514 53.5246 50.0358 53.8493 50.0499 54.0469C50.0499 54.3716 49.9796 54.4422 49.5717 54.5128C48.995 54.6257 48.7981 54.8375 48.1792 56.0939C47.6728 57.0963 47.1243 57.7033 46.7164 57.7033C46.5757 57.7033 46.5335 57.788 46.6038 57.9433C46.6601 58.0845 46.7304 58.4092 46.7726 58.6492C46.843 59.0868 46.8148 59.1292 46.21 59.3833C45.4505 59.708 45.2254 60.075 45.2957 60.8232L45.352 61.3738H44.6206H43.8892L43.9595 61.9668C44.058 62.9126 43.6501 63.435 42.5952 63.7314L41.7512 63.9573V64.8467C41.7512 65.8208 41.5121 66.1455 41.0198 65.8773C40.7948 65.7643 40.7807 65.7925 40.8651 66.1737C40.9354 66.569 40.8651 66.6819 40.0774 67.416C39.2194 68.2207 39.2194 68.2207 39.2194 68.9972V69.7736L38.474 70.1266C37.7988 70.4513 37.7285 70.5219 37.63 71.1148C37.4613 71.9477 37.3628 72.0606 36.6173 72.1736C35.9141 72.2724 35.7031 72.5265 35.7031 73.2606C35.7031 74.0088 35.5202 74.1782 34.9717 73.9665C34.5638 73.8112 34.4794 73.8253 34.3246 74.0371C34.2262 74.1782 34.1699 74.39 34.2121 74.5029C34.2403 74.6159 34.3387 74.9123 34.409 75.1523L34.5497 75.6041L33.2979 76.1264C32.6087 76.4088 32.0179 76.7052 31.9616 76.7758C31.9194 76.8464 32.032 77.1852 32.2008 77.5382C32.5946 78.3146 32.468 78.5122 31.7366 78.2864C30.8223 78.004 30.4004 78.4417 30.9067 79.1475C31.0755 79.3734 31.2021 79.684 31.2021 79.8252C31.2021 80.5169 30.33 80.6581 29.8518 80.0369C29.683 79.8252 29.5002 79.6981 29.458 79.7405C29.4017 79.7828 29.3033 80.2204 29.2189 80.7004C29.0501 81.6604 28.8813 81.7451 28.1077 81.3498C27.7561 81.1663 27.6857 81.1663 27.6857 81.3216C27.6857 81.6604 28.1077 82.7474 28.2765 82.8463C28.4031 82.931 28.4031 83.0016 28.2624 83.171C28.1077 83.3545 28.0374 83.3545 27.6576 83.1145C27.1512 82.8039 26.8418 82.8886 26.8418 83.3263C26.8418 83.5098 26.6167 83.9333 26.3354 84.2721C25.7728 84.9215 25.4352 85.6133 25.4352 86.065C25.4352 86.4038 24.9851 86.5732 24.6054 86.3756C24.4507 86.2909 24.1693 86.2203 23.9724 86.2203C23.6911 86.2203 23.6067 86.2909 23.6067 86.5309C23.6208 86.7144 23.7052 87.0109 23.8177 87.2085C24.2537 87.9708 23.874 88.5638 23.1988 88.2108C23.0441 88.1261 22.7487 88.0556 22.5518 88.0556C22.2424 88.0556 22.2002 88.112 22.2564 88.3379C22.2986 88.4932 22.383 88.7473 22.4252 88.9167C22.6643 89.7637 22.0033 90.2296 21.5532 89.5379C21.2719 89.1144 21.1312 89.1002 20.9343 89.4814C20.8077 89.6932 20.8218 89.919 20.9905 90.4131C21.1171 90.7802 21.2156 91.2178 21.2156 91.4014C21.2156 91.7119 21.1734 91.7261 20.2451 91.7261C19.6965 91.7261 19.2183 91.7966 19.1761 91.8672C19.1198 91.9519 19.2464 92.206 19.4574 92.4602C20.1466 93.279 19.5981 93.9425 18.8244 93.2084C18.5994 92.9966 18.3181 92.8554 18.1634 92.8837C17.9524 92.926 17.9102 93.0672 17.9243 93.7448C17.9383 94.6201 17.7977 94.7613 17.3476 94.2672C17.0522 93.9284 16.6021 93.9001 16.4896 94.1966C16.4333 94.3095 16.5036 94.6625 16.6302 94.973C16.7568 95.2836 16.8553 95.5801 16.8553 95.6224C16.8553 95.7071 16.4896 95.6507 15.6878 95.453C15.3221 95.3683 15.3081 95.3824 15.3081 95.933C15.3081 96.2436 15.4065 96.5965 15.5191 96.7095C15.7019 96.893 15.7019 96.9495 15.505 97.1048C15.3221 97.2459 15.2096 97.2459 14.8439 97.0906C14.5907 96.9918 14.211 96.9071 13.9718 96.893C13.6061 96.8789 13.5499 96.9212 13.6061 97.2318C13.6202 97.4295 13.7609 97.74 13.9015 97.9518C14.0422 98.1494 14.211 98.4883 14.2672 98.7L14.3516 99.0812L13.8171 98.8412C13.5077 98.7141 13.0998 98.573 12.8747 98.5306C12.509 98.4741 12.495 98.4883 12.495 99.1235C12.495 99.66 12.4528 99.7729 12.2418 99.7729C12.1011 99.7729 11.8902 99.6176 11.7917 99.42C11.5807 99.0247 11.2713 99.0106 11.0322 99.3776C10.9196 99.5612 10.9478 99.787 11.1306 100.295C11.5666 101.509 11.2994 102.074 10.6946 101.227C10.5117 100.973 10.357 100.888 10.1742 100.945C9.97724 101.029 9.94911 101.142 10.0194 101.58C10.2164 102.653 10.1882 102.935 9.92098 102.992C9.31616 103.119 8.78167 102.229 8.57069 100.747C8.4441 99.8576 8.20499 99.2506 6.95316 96.6671C6.13736 95.0013 5.23716 93.2084 4.94179 92.686L4.4073 91.7402L5.11057 91.0202C6.0389 90.0461 7.09381 89.3261 9.52715 87.9285C15.4628 84.5262 25.2243 76.7052 34.6482 67.8113C40.2884 62.475 43.4954 59.228 43.9033 58.3951C44.4659 57.2798 45.4927 55.9528 46.7445 54.7387C47.3493 54.1599 48.1511 53.214 48.5449 52.6211C48.9387 52.0423 50.0499 50.5458 51.0345 49.3035C52.005 48.0612 53.1021 46.6353 53.4537 46.1271C54.0586 45.2519 55.3948 42.979 55.3948 42.8096C55.3948 42.7672 55.0572 42.9084 54.6634 43.106C53.6085 43.6425 52.0331 45.2942 50.3734 47.6094C49.5998 48.6965 47.5884 51.2094 45.9006 53.1858C44.2127 55.1622 42.0185 57.8163 41.0058 59.0727C39.5992 60.8515 39.0366 61.4303 38.5865 61.6562C38.2349 61.8256 37.5597 62.4185 36.983 63.0538C36.4345 63.6608 35.7453 64.2961 35.4358 64.4373C35.0279 64.649 34.6763 65.0161 34.1559 65.7925C33.3541 67.0066 32.257 68.0654 30.9067 68.9407C30.4004 69.2654 29.894 69.6466 29.7815 69.7878C29.669 69.9148 28.0936 71.2701 26.2792 72.7947C24.4647 74.3053 22.369 76.1688 21.6235 76.917C20.7092 77.8487 19.8231 78.5687 18.8807 79.1616C17.1366 80.2628 15.941 81.124 11.7214 84.3145C6.99535 87.9003 4.4073 89.6085 3.71809 89.6085C3.43678 89.6085 3.28206 89.4955 3.09921 89.1567C2.97262 88.9167 2.71944 88.5497 2.53659 88.3661L2.21308 88.0273L2.35373 84.3992C2.50845 80.8698 2.7335 78.7381 3.11327 77.4676C3.29612 76.8323 3.31019 76.8323 5.11057 75.9147C6.12329 75.4064 7.88148 74.5594 9.02079 74.0229C11.4823 72.8653 13.0295 71.9336 14.0703 70.9877C14.5345 70.5642 15.5191 69.9572 16.6443 69.3783C19.9638 67.6843 23.4098 65.4678 27.5451 62.3762C29.9081 60.6115 38.8397 53.4681 41.1183 51.5058C43.1437 49.7835 46.2381 46.7059 47.6166 45.0683C48.7277 43.7554 51.1048 40.3531 50.9923 40.2402C50.8938 40.1414 49.7686 40.6073 49.3326 40.932C49.0934 41.1155 48.5589 41.779 48.137 42.4143C47.3353 43.6001 45.4786 45.393 39.0085 51.1388C35.1264 54.5834 34.8451 54.8234 34.0152 55.1622C32.7915 55.6845 31.4834 56.6022 30.527 57.6186C29.8237 58.3386 29.5424 58.5504 29.2329 58.5504C29.0079 58.5504 28.7828 58.4798 28.7266 58.3951C28.6703 58.2962 28.5719 58.3668 28.4734 58.5645C28.389 58.7339 27.9811 59.0868 27.5591 59.3268C26.6589 59.8633 26.4198 60.1456 26.4198 60.7103C26.4198 61.1197 26.4058 61.1197 25.8853 61.0632C25.4071 60.9927 25.3368 61.0209 25.1821 61.3738C25.0695 61.6138 24.7038 61.9244 24.1975 62.1926C23.3113 62.6726 22.9878 62.9691 22.8472 63.4491C22.7065 63.8867 22.2002 63.8726 21.6657 63.4208C21.1593 62.9973 20.9343 62.9691 21.0327 63.3644C21.1312 63.7173 20.8358 64.3102 20.5123 64.409C20.0622 64.5502 19.5277 65.1573 19.5277 65.5384C19.5277 65.9478 19.4574 65.962 18.7682 65.6796C18.3884 65.5102 18.1774 65.4961 17.9805 65.609C17.657 65.7925 17.6429 65.849 17.9102 66.3149C18.1774 66.7808 18.1774 67.289 17.8961 67.4019C17.7695 67.4443 17.4601 67.3737 17.1929 67.2466C16.9256 67.1196 16.4755 67.0208 16.2083 67.0208H15.7019L15.8004 67.7266C15.8707 68.2066 15.8426 68.5031 15.73 68.6442C15.4487 68.9831 15.0549 68.8842 14.8158 68.4325C14.4079 67.6419 13.8031 68.009 13.6624 69.1101C13.5921 69.7454 13.5358 69.8583 13.2264 69.943C12.9451 70.0136 12.7903 69.943 12.5512 69.6607C12.3684 69.4489 12.1293 69.2795 12.0167 69.2795C11.8058 69.2795 11.5526 69.9289 11.4823 70.663L11.4401 71.0018L11.0603 70.7054C10.5961 70.3242 10.4133 70.3242 10.357 70.7195C10.3148 71.016 10.1179 71.1712 9.18957 71.5665C8.852 71.7218 8.75354 71.863 8.69728 72.3148C8.62695 72.8512 8.59882 72.8794 8.14873 72.8512C7.82522 72.8371 7.52984 72.6818 7.16414 72.3289C6.88283 72.0465 6.60152 71.8206 6.54526 71.8206C6.489 71.8206 6.4468 72.2018 6.4468 72.6818V73.543L6.0389 73.4441C5.47628 73.3171 5.09651 73.5571 4.75894 74.2206C4.35104 75.0253 4.01346 75.1664 3.64776 74.7006C3.2258 74.1641 3.26799 73.2041 3.77435 71.6512C4.01346 70.9313 4.23851 69.9289 4.29478 69.4207L4.37917 68.5031L6.15142 67.8819C9.72406 66.6537 12.8607 65.0161 17.0241 62.2067C19.7387 60.3856 20.7374 59.6092 22.4252 57.9998C24.2819 56.221 25.2383 55.614 29.0219 53.8493C31.6663 52.5929 32.9181 51.9293 33.7339 51.3223C34.4794 50.7576 35.478 49.6988 35.9141 49.0212C36.3641 48.3012 36.8846 47.1295 36.7861 47.0306C36.758 47.0024 36.3923 47.2283 35.9703 47.553C34.6341 48.5553 32.046 50.1506 27.5873 52.7058C21.314 56.2916 18.3603 58.3245 16.1239 60.5691C15.4628 61.2327 15.0408 61.5291 14.4641 61.7268C14.0281 61.882 13.4092 62.2491 13.0576 62.5738C12.706 62.8844 11.9183 63.5055 11.2994 63.9432C10.6805 64.3808 9.99131 64.9314 9.76626 65.1714C9.51308 65.4396 9.20364 65.609 8.99266 65.609C8.31751 65.609 6.65778 66.0325 5.9967 66.3572L5.32156 66.6961L4.98398 66.1878C4.18225 64.9879 4.16819 63.7738 4.91366 62.362C5.15277 61.8962 6.01077 60.6962 6.8125 59.708C7.71269 58.5786 8.45817 57.4774 8.79574 56.7716C9.24584 55.8398 9.45682 55.5575 10.1601 55.0351C10.6243 54.6822 11.2853 53.9905 11.637 53.4964C14.6329 49.2753 16.0254 47.6518 17.6289 46.5506C19.4293 45.3083 21.6798 44.2778 25.0977 43.1484L27.3341 42.4143L31.9054 42.3155C35.8015 42.2166 36.6173 42.1602 37.4613 41.9343C41.0761 40.9178 45.127 38.8144 48.1089 36.4144C49.3326 35.4121 49.2341 35.638 50.4015 31.0922C51.794 25.6711 52.4692 23.5959 53.4959 21.563C53.8195 20.9277 53.8476 20.716 53.8476 18.9654C53.8476 17.596 53.721 16.1984 53.3975 13.9114C53.088 11.6668 52.9474 10.1986 52.9474 8.78682C52.9333 6.95157 52.9615 6.73981 53.3412 5.70924C53.6366 4.90456 53.932 4.39633 54.4383 3.83165L55.1416 3.06931L55.6198 3.42224C56.3231 3.95869 57.4906 4.46692 58.5877 4.69279C59.2065 4.83397 60.81 4.9328 63.1308 4.97514C66.9285 5.05984 68.0397 5.17279 69.3618 5.62454C70.1214 5.87866 70.248 5.89278 70.8528 5.69513C72.3015 5.24338 73.8487 5.00339 77.6183 4.69279C80.6283 4.43869 80.7408 4.41046 81.4863 3.98694C81.7958 3.80341 82.5553 3.56342 83.1742 3.43636C86.4655 2.78696 89.2786 2.68814 95.9035 2.99872C101.572 3.25284 102.444 3.23872 106.031 2.71638C108.83 2.30698 110.982 2.32109 113.19 2.78696ZM119.126 33.8168C119.688 34.1839 120.799 35.3133 120.799 35.525C120.799 35.5815 120.659 35.6803 120.49 35.7509C119.688 36.1038 120.11 36.8238 121.939 38.165C123.781 39.5202 124.372 40.2402 124.667 41.4966C124.963 42.7107 125.047 42.8943 125.525 43.3884L125.891 43.7413L126.271 43.3884C126.693 42.979 126.918 42.9225 127.03 43.219C127.073 43.3319 127.537 43.6425 128.071 43.9248C129.351 44.6025 130.842 45.746 133.388 48.0047C136.117 50.447 136.806 50.9835 141.687 54.5975C143.937 56.2492 147.186 58.748 148.902 60.1315C153.403 63.7455 154.979 64.762 162.574 69.0254C167.131 71.5807 169.143 72.7806 170.69 73.8253C171.618 74.4465 171.773 74.5029 172.546 74.5029C173.334 74.5029 173.461 74.5453 174.206 75.1382C174.656 75.477 175.43 76.07 175.936 76.437C177.723 77.764 177.99 79.0487 177.272 82.9169C177.061 84.0745 176.865 85.105 176.836 85.218C176.794 85.3591 176.611 85.3874 176.063 85.3168C174.938 85.1615 174.248 84.8509 170.718 82.8321C165.05 79.5993 162.447 77.8346 160.141 75.6464C159.184 74.7429 158.833 74.5029 158.509 74.5029C158.27 74.5029 157.792 74.3476 157.426 74.15C157.06 73.9524 156.681 73.7971 156.582 73.7971C156.484 73.7971 156.371 73.67 156.315 73.5288C156.273 73.3735 155.949 73.0206 155.612 72.7383C155.26 72.4559 154.979 72.103 154.979 71.9618C154.979 71.7783 154.669 71.5383 153.966 71.1571C152.602 70.4371 151.139 69.336 149.338 67.6419C147.003 65.4396 145.92 64.5079 143.642 62.7432C139.999 59.9339 138.972 59.0445 135.357 55.614C130.055 50.5741 127.368 47.8494 125.314 45.3507C122.515 41.9766 121.714 40.8473 120.856 39.1391C120.335 38.1226 119.829 37.3179 119.337 36.8097C118.169 35.5815 117.185 34.0145 117.339 33.6192C117.466 33.2663 118.422 33.3792 119.126 33.8168ZM122.769 36.5273C123.064 36.6826 123.809 37.2332 124.414 37.7414C125.019 38.2638 125.765 38.8567 126.06 39.0544L126.623 39.4214L126.032 39.4638C125.23 39.5202 124.203 38.9555 123.275 37.925C122.572 37.1344 121.967 36.245 122.136 36.245C122.178 36.245 122.459 36.3721 122.769 36.5273Z" fill="white"/>
</g>
</svg>
